<?xml version="1.0" encoding="UTF-8" standalone="no"?><!DOCTYPE svg PUBLIC "-//W3C//DTD SVG 1.1//EN" "http://www.w3.org/Graphics/SVG/1.1/DTD/svg11.dtd"><svg width="100%" height="100%" viewBox="0 0 534 534" version="1.1" xmlns="http://www.w3.org/2000/svg" xmlns:xlink="http://www.w3.org/1999/xlink" xml:space="preserve" xmlns:serif="http://www.serif.com/" style="fill-rule:evenodd;clip-rule:evenodd;stroke-linecap:round;stroke-linejoin:round;stroke-miterlimit:1.5;"><path d="M63.645,412.549c-28.941,-40.817 -46.978,-92.123 -46.978,-145.882c-0,-137.979 112.021,-250 250,-250c137.978,-0 250,112.021 250,250c-0,55.409 -16.71,104.873 -47.255,146.32c-0.138,0.195 -0.279,0.387 -0.425,0.576c-1.529,1.892 -3.867,3.104 -6.487,3.104c-4.599,-0 -8.333,-3.734 -8.333,-8.334c-0,-1.84 0.597,-3.542 1.609,-4.921c26.969,-38.059 44.224,-86.594 44.224,-136.745c0,-128.781 -104.553,-233.334 -233.333,-233.334c-128.781,0 -233.334,104.553 -233.334,233.334c0,48.532 18.465,98.917 43.942,136.381c0.274,0.404 0.55,0.807 0.826,1.207c0.679,1.206 1.066,2.597 1.066,4.078c-0,4.6 -3.734,8.334 -8.334,8.334c-2.534,-0 -4.806,-1.134 -6.335,-2.922c-0.285,-0.397 -0.57,-0.796 -0.853,-1.196Z" style="fill:#808080;"/><path d="M40.553,208.897c-4.714,18.477 -7.22,37.833 -7.22,57.77c0,48.532 18.465,98.917 43.942,136.381l0.826,1.207c0.679,1.206 1.066,2.597 1.066,4.078c-0,4.6 -3.734,8.334 -8.334,8.334c-2.534,-0 -4.806,-1.134 -6.335,-2.922l-0.853,-1.196c-28.941,-40.817 -46.978,-92.123 -46.978,-145.882c-0,-21.759 2.785,-42.873 8.02,-63.003l15.866,5.233Z" style="fill:#00d22b;"/><path d="M492.905,209.387c4.714,18.478 7.095,37.846 7.095,57.782c0,48.533 -18.274,98.108 -43.75,135.572l-0.967,1.426c-0.348,0.618 -0.705,1.42 -0.9,2.274c-0.185,0.812 -0.216,1.674 -0.216,2.395c-0,4.599 3.734,8.333 8.333,8.333c2.534,0 4.806,-1.133 6.335,-2.921l0.854,-1.197c9.087,-12.816 17.367,-26.533 24.2,-41.169c3.764,-8.061 7.11,-16.397 9.979,-24.932c1.509,-4.488 2.859,-9.046 4.128,-13.617c5.892,-21.214 8.671,-43.47 8.671,-66.164c-0,-21.759 -2.656,-42.872 -7.89,-63.002l-15.872,5.22Z" style="fill:#a10006;"/><path d="M173.804,52.572c-65.431,28.449 -115.319,86.028 -133.251,156.325l-15.866,-5.233c19.476,-74.907 72.853,-136.202 142.74,-166.495l6.377,15.403Z" style="fill:#fffd00;"/><path d="M359.369,52.502c-28.421,-12.331 -59.77,-19.169 -92.702,-19.169c-32.995,0 -64.4,6.864 -92.863,19.239l-6.377,-15.403c30.429,-13.19 63.987,-20.502 99.24,-20.502c35.252,-0 68.811,7.312 99.239,20.502l-6.537,15.333Z" style="fill:#ff6a00;"/><path d="M359.369,52.502c65.431,28.449 115.479,86.098 133.412,156.395l15.996,-4.73c-3.557,-13.679 -8.13,-26.909 -13.866,-39.584c-8.826,-19.503 -19.799,-37.69 -33.137,-54.166c-7.028,-8.683 -14.538,-17.028 -22.678,-24.703c-7.347,-6.927 -15.024,-13.574 -23.178,-19.569c-9.158,-6.734 -18.382,-12.921 -28.418,-18.348c-3.253,-1.759 -6.579,-3.538 -9.935,-5.213c-3.855,-1.923 -7.752,-3.722 -11.659,-5.415l-6.537,15.333Z" style="fill:#ff3000;"/><circle cx="504.167" cy="312.5" r="16.667" style="fill:#a10006;stroke:#000;stroke-width:4.17px;"/></svg>