<?xml version="1.0" encoding="UTF-8" standalone="no"?><!DOCTYPE svg PUBLIC "-//W3C//DTD SVG 1.1//EN" "http://www.w3.org/Graphics/SVG/1.1/DTD/svg11.dtd"><svg width="100%" height="100%" viewBox="0 0 534 534" version="1.1" xmlns="http://www.w3.org/2000/svg" xmlns:xlink="http://www.w3.org/1999/xlink" xml:space="preserve" xmlns:serif="http://www.serif.com/" style="fill-rule:evenodd;clip-rule:evenodd;stroke-linejoin:round;stroke-miterlimit:2;"><path d="M235.166,42.431c5.966,-10.683 18.161,-17.431 31.501,-17.431c13.34,0 25.535,6.748 31.501,17.431c47.615,85.266 138.608,248.208 197.599,353.843c10.291,18.428 7.865,40.507 -6.24,56.786c-14.104,16.279 -37.387,23.872 -59.881,19.528c-77.359,-14.939 -108.653,-36.475 -162.979,-36.475c-54.327,0 -85.62,21.536 -162.98,36.475c-22.493,4.344 -45.776,-3.249 -59.881,-19.528c-14.104,-16.279 -16.531,-38.358 -6.24,-56.786c58.991,-105.635 149.984,-268.577 197.6,-353.843Z" style="fill:#81378d;"/></svg>