<?xml version="1.0" encoding="UTF-8" standalone="no"?>
<!DOCTYPE svg PUBLIC "-//W3C//DTD SVG 1.1//EN" "http://www.w3.org/Graphics/SVG/1.1/DTD/svg11.dtd">
<svg width="100%" height="100%" viewBox="0 0 128 128" version="1.1" xmlns="http://www.w3.org/2000/svg" xmlns:xlink="http://www.w3.org/1999/xlink" xml:space="preserve" xmlns:serif="http://www.serif.com/" style="fill-rule:evenodd;clip-rule:evenodd;stroke-linejoin:round;stroke-miterlimit:2;">
    <g transform="matrix(1,0,0,1,-0.239341,-28.7607)">
        <path d="M30,120.996C14.501,120.728 2,108.063 2,92.5C2,76.77 14.77,64 30.5,64C32.866,64 35.166,64.289 37.364,64.834C42.278,45.344 59.893,30.858 80.911,30.761C105.813,30.646 126.124,50.77 126.239,75.672C126.354,100.574 106.23,120.885 81.328,121C80.884,121.002 80.441,120.997 80,120.986L80,121L30.5,121C30.333,121 30.166,120.999 30,120.996Z" style="fill:url(#_Linear1);"/>
    </g>
    <g transform="matrix(2.05417,-1.18597,0.501167,0.868046,-73.1649,41.9654)">
        <path d="M28,95.592L28,126.408C28,126.735 27.888,127 27.75,127L27.25,127C27.112,127 27,126.735 27,126.408L27,95.592C27,95.265 27.112,95 27.25,95L27.75,95C27.888,95 28,95.265 28,95.592Z" style="fill:rgb(64,196,255);"/>
    </g>
    <g transform="matrix(1.64656,-0.950642,0.316499,0.548192,-36.299,65.9976)">
        <path d="M28,95.751L28,126.249C28,126.664 27.888,127 27.75,127L27.25,127C27.112,127 27,126.664 27,126.249L27,95.751C27,95.336 27.112,95 27.25,95L27.75,95C27.888,95 28,95.336 28,95.751Z" style="fill:rgb(64,196,255);"/>
    </g>
    <g transform="matrix(1.57551,-0.909623,0.315759,0.54691,-2.21575,65.0119)">
        <path d="M28,95.72L28,126.28C28,126.677 27.888,127 27.75,127L27.25,127C27.112,127 27,126.677 27,126.28L27,95.72C27,95.323 27.112,95 27.25,95L27.75,95C27.888,95 28,95.323 28,95.72Z" style="fill:rgb(64,196,255);"/>
    </g>
    <g transform="matrix(1.48883,-0.859576,0.22488,0.389503,0.753055,92.6012)">
        <path d="M28,95.956L28,126.044C28,126.572 27.888,127 27.75,127L27.25,127C27.112,127 27,126.572 27,126.044L27,95.956C27,95.428 27.112,95 27.25,95L27.75,95C27.888,95 28,95.428 28,95.956Z" style="fill:rgb(64,196,255);"/>
    </g>
    <g transform="matrix(1.74937,-1.01,0.481271,0.833587,-47.1038,40.4145)">
        <path d="M28,95.525L28,126.475C28,126.765 27.888,127 27.75,127L27.25,127C27.112,127 27,126.765 27,126.475L27,95.525C27,95.235 27.112,95 27.25,95L27.75,95C27.888,95 28,95.235 28,95.525Z" style="fill:rgb(64,196,255);"/>
    </g>
    <g transform="matrix(2.15728,-1.2455,0.497945,0.862465,-43.6427,44.0433)">
        <path d="M28,95.625L28,126.375C28,126.72 27.888,127 27.75,127L27.25,127C27.112,127 27,126.72 27,126.375L27,95.625C27,95.28 27.112,95 27.25,95L27.75,95C27.888,95 28,95.28 28,95.625Z" style="fill:rgb(64,196,255);"/>
    </g>
    <g transform="matrix(2.14437,-1.23805,0.498348,0.863164,-27.3325,43.7459)">
        <path d="M28,95.621L28,126.379C28,126.722 27.888,127 27.75,127L27.25,127C27.112,127 27,126.722 27,126.379L27,95.621C27,95.278 27.112,95 27.25,95L27.75,95C27.888,95 28,95.278 28,95.621Z" style="fill:rgb(64,196,255);"/>
    </g>
    <defs>
        <linearGradient id="_Linear1" x1="0" y1="0" x2="1" y2="0" gradientUnits="userSpaceOnUse" gradientTransform="matrix(59,55,-55,59,74,72)"><stop offset="0" style="stop-color:rgb(209,209,209);stop-opacity:1"/><stop offset="1" style="stop-color:rgb(142,142,142);stop-opacity:1"/></linearGradient>
    </defs>
</svg>
