<?xml version="1.0" encoding="UTF-8" standalone="no"?><!DOCTYPE svg PUBLIC "-//W3C//DTD SVG 1.1//EN" "http://www.w3.org/Graphics/SVG/1.1/DTD/svg11.dtd"><svg width="100%" height="100%" viewBox="0 0 534 534" version="1.1" xmlns="http://www.w3.org/2000/svg" xmlns:xlink="http://www.w3.org/1999/xlink" xml:space="preserve" xmlns:serif="http://www.serif.com/" style="fill-rule:evenodd;clip-rule:evenodd;stroke-linecap:round;stroke-linejoin:round;stroke-miterlimit:1.5;"><path d="M124.003,384.313c-64.581,-1.114 -116.667,-53.888 -116.667,-118.732c0,-65.54 53.21,-118.75 118.75,-118.75c9.859,-0 19.44,1.204 28.602,3.473c20.472,-81.209 93.867,-141.564 181.446,-141.969c103.758,-0.478 188.385,83.371 188.864,187.129c0.479,103.759 -83.371,188.386 -187.129,188.865c-1.851,0.008 -3.695,-0.01 -5.533,-0.055l0,0.057l-206.25,-0c-0.696,-0 -1.39,-0.006 -2.083,-0.018Z" style="fill:url(#_Linear1);"/><path d="M300.513,382.886l40.206,69.64c0.523,0.905 0.212,2.065 -0.693,2.588l-3.283,1.895c-0.906,0.523 -2.066,0.212 -2.588,-0.693l-40.207,-69.639c-0.523,-0.906 -0.212,-2.066 0.694,-2.589l3.282,-1.895c0.906,-0.523 2.066,-0.212 2.589,0.693Z" style="fill:#40c4ff;"/><path d="M268.238,381.845l63.798,110.501c0.716,1.24 0.29,2.828 -0.95,3.544l-4.494,2.595c-1.24,0.716 -2.829,0.29 -3.545,-0.95l-63.798,-110.501c-0.716,-1.24 -0.29,-2.828 0.95,-3.544l4.495,-2.595c1.24,-0.716 2.828,-0.291 3.544,0.95Z" style="fill:#40c4ff;"/><path d="M334.843,381.738l63.867,110.621c0.712,1.233 0.289,2.812 -0.944,3.523l-4.467,2.58c-1.233,0.711 -2.812,0.288 -3.524,-0.944l-63.867,-110.621c-0.711,-1.233 -0.288,-2.812 0.944,-3.524l4.468,-2.579c1.233,-0.712 2.811,-0.289 3.523,0.944Z" style="fill:#40c4ff;"/><path d="M216.689,414.632l13.806,3.7c0.942,0.252 1.543,1.114 1.543,2.049c-0,0.19 -0.02,0.384 -0.071,0.577l-1.078,4.022c-0.297,1.11 -1.44,1.77 -2.55,1.472l-20.608,-5.522c-0.381,-0.102 -0.709,-0.304 -0.964,-0.57l-13.657,7.885c0.883,2.475 1.363,5.14 1.363,7.916c0,2.777 -0.48,5.442 -1.363,7.916l15.493,8.945c0.132,-0.069 0.274,-0.124 0.423,-0.164l20.609,-5.522c1.11,-0.298 2.252,0.362 2.549,1.472l1.078,4.021c0.297,1.11 -0.362,2.253 -1.472,2.55l-13.049,3.497l12.175,7.029c0.995,0.574 1.336,1.848 0.762,2.843l-2.082,3.606c-0.574,0.995 -1.849,1.337 -2.844,0.762l-12.766,-7.37l3.747,13.981c0.297,1.11 -0.363,2.253 -1.473,2.55l-4.021,1.078c-1.11,0.297 -2.253,-0.363 -2.55,-1.473l-5.522,-20.608c-0.108,-0.403 -0.09,-0.81 0.031,-1.18l-15.229,-8.792c-3.482,4.155 -8.369,7.095 -13.926,8.086l0,17.098c0.352,0.089 0.684,0.271 0.959,0.545l15.086,15.087c0.813,0.812 0.813,2.131 0,2.944l-2.944,2.944c-0.812,0.812 -2.132,0.812 -2.944,-0l-10.157,-10.157l0,14.236c0,1.149 -0.933,2.082 -2.082,2.082l-4.163,-0c-1.149,-0 -2.082,-0.933 -2.082,-2.082l-0,-13.71l-9.631,9.631c-0.812,0.812 -2.132,0.812 -2.944,-0l-2.944,-2.944c-0.813,-0.813 -0.813,-2.132 -0,-2.944l15.086,-15.087c0.133,-0.132 0.278,-0.243 0.433,-0.332l-0,-17.311c-5.491,-0.979 -10.326,-3.86 -13.8,-7.937l-14.179,8.187c0.293,0.471 0.398,1.058 0.243,1.636l-5.522,20.608c-0.298,1.11 -1.44,1.77 -2.55,1.473l-4.022,-1.078c-1.109,-0.297 -1.769,-1.44 -1.472,-2.55l3.93,-14.666l-14.863,8.581c-0.995,0.575 -2.27,0.233 -2.844,-0.762l-2.082,-3.606c-0.574,-0.995 -0.233,-2.269 0.762,-2.843l13.404,-7.739l-12.364,-3.313c-1.11,-0.297 -1.769,-1.44 -1.472,-2.55l1.078,-4.021c0.297,-1.11 1.439,-1.77 2.549,-1.472l20.408,5.468l14.795,-8.543c-0.924,-2.526 -1.429,-5.254 -1.429,-8.1c-0,-2.845 0.505,-5.573 1.429,-8.1l-15.359,-8.867c-0.208,0.157 -0.449,0.277 -0.716,0.348l-20.608,5.522c-1.11,0.298 -2.252,-0.362 -2.55,-1.472l-1.077,-4.021c-0.298,-1.11 0.362,-2.253 1.472,-2.55l13.466,-3.608l-13.026,-7.521c-0.995,-0.574 -1.336,-1.848 -0.762,-2.844l2.082,-3.605c0.574,-0.995 1.849,-1.337 2.844,-0.762l13.088,7.556l-3.635,-13.564c-0.297,-1.11 0.362,-2.253 1.472,-2.55l4.022,-1.078c1.11,-0.297 2.252,0.363 2.55,1.473l5.522,20.608c0.078,0.293 0.09,0.589 0.044,0.87l15.372,8.875c3.474,-4.076 8.309,-6.957 13.8,-7.936l-0,-17.299c-0.155,-0.089 -0.3,-0.2 -0.433,-0.332l-15.086,-15.086c-0.813,-0.813 -0.813,-2.132 -0,-2.944l2.944,-2.944c0.812,-0.813 2.132,-0.813 2.944,-0l9.631,9.63l-0,-13.722c-0,-1.149 0.933,-2.082 2.082,-2.082l4.163,0c1.149,0 2.082,0.933 2.082,2.082l0,14.248l10.157,-10.156c0.812,-0.813 2.132,-0.813 2.944,-0l2.944,2.944c0.813,0.812 0.813,2.131 0,2.944l-15.086,15.086c-0.275,0.275 -0.607,0.457 -0.959,0.546l0,17.085c5.557,0.991 10.444,3.931 13.926,8.086l13.831,-7.986c0.002,-0.172 0.025,-0.347 0.072,-0.521l5.522,-20.609c0.297,-1.109 1.44,-1.769 2.549,-1.472l4.022,1.078c1.11,0.297 1.769,1.44 1.472,2.55l-3.519,13.133l13.834,-7.987c0.995,-0.575 2.27,-0.233 2.844,0.762l2.082,3.605c0.574,0.996 0.233,2.27 -0.762,2.844l-14.227,8.214Zm-53.205,12.341c-2.187,1.763 -3.732,4.29 -4.23,7.173c-0.112,0.655 -0.171,1.328 -0.171,2.015c-0,0.687 0.059,1.361 0.171,2.016c0.498,2.883 2.043,5.41 4.23,7.173c0.964,0.777 2.053,1.406 3.232,1.851c1.295,0.49 2.698,0.757 4.164,0.757c1.465,0 2.868,-0.267 4.163,-0.757c1.244,-0.47 2.388,-1.144 3.391,-1.981c2.153,-1.799 3.656,-4.349 4.104,-7.247c0.091,-0.59 0.138,-1.195 0.138,-1.812c0,-0.616 -0.047,-1.221 -0.138,-1.812c-0.448,-2.897 -1.951,-5.448 -4.104,-7.246c-1.003,-0.837 -2.147,-1.512 -3.391,-1.981c-1.295,-0.49 -2.698,-0.757 -4.163,-0.757c-1.466,-0 -2.869,0.267 -4.164,0.757c-1.179,0.445 -2.268,1.074 -3.232,1.851Z" style="fill:#ebebeb;stroke:#000;stroke-width:1.21px;"/><defs><linearGradient id="_Linear1" x1="0" y1="0" x2="1" y2="0" gradientUnits="userSpaceOnUse" gradientTransform="matrix(245.833,229.167,-229.167,245.833,307.336,180.164)"><stop offset="0" style="stop-color:#d1d1d1;stop-opacity:1"/><stop offset="1" style="stop-color:#8e8e8e;stop-opacity:1"/></linearGradient></defs></svg>