<?xml version="1.0" encoding="UTF-8" standalone="no"?><!DOCTYPE svg PUBLIC "-//W3C//DTD SVG 1.1//EN" "http://www.w3.org/Graphics/SVG/1.1/DTD/svg11.dtd"><svg width="100%" height="100%" viewBox="0 0 534 534" version="1.1" xmlns="http://www.w3.org/2000/svg" xmlns:xlink="http://www.w3.org/1999/xlink" xml:space="preserve" xmlns:serif="http://www.serif.com/" style="fill-rule:evenodd;clip-rule:evenodd;stroke-linecap:round;stroke-linejoin:round;stroke-miterlimit:1.5;"><path d="M125,409.313c-64.58,-1.114 -116.667,-53.888 -116.667,-118.732c0,-65.54 53.21,-118.75 118.75,-118.75c9.86,-0 19.44,1.204 28.602,3.473c20.472,-81.209 93.867,-141.564 181.446,-141.969c103.758,-0.478 188.385,83.371 188.864,187.129c0.479,103.759 -83.371,188.386 -187.129,188.865c-1.85,0.008 -3.695,-0.01 -5.533,-0.055l0,0.057l-206.25,-0c-0.696,-0 -1.39,-0.006 -2.083,-0.018Z" style="fill:url(#_Linear1);"/><path d="M306.897,319.656l12.027,3.222c0.822,0.221 1.345,0.972 1.345,1.785c-0,0.166 -0.017,0.336 -0.062,0.504l-0.939,3.504c-0.259,0.966 -1.254,1.541 -2.221,1.282l-17.954,-4.811c-0.332,-0.089 -0.618,-0.264 -0.839,-0.496l-11.898,6.869c0.769,2.156 1.187,4.478 1.187,6.896c0,2.419 -0.418,4.741 -1.187,6.897l13.497,7.792c0.115,-0.06 0.238,-0.108 0.369,-0.143l17.953,-4.811c0.967,-0.259 1.962,0.316 2.222,1.283l0.938,3.503c0.259,0.967 -0.315,1.962 -1.282,2.221l-11.368,3.047l10.607,6.123c0.866,0.501 1.164,1.611 0.663,2.478l-1.813,3.141c-0.501,0.867 -1.611,1.164 -2.478,0.664l-11.121,-6.421l3.263,12.18c0.259,0.967 -0.315,1.962 -1.282,2.221l-3.504,0.939c-0.967,0.259 -1.962,-0.315 -2.221,-1.282l-4.811,-17.954c-0.094,-0.351 -0.078,-0.706 0.027,-1.028l-13.267,-7.659c-3.033,3.62 -7.29,6.181 -12.132,7.044l0,14.895c0.306,0.078 0.596,0.236 0.835,0.476l13.143,13.142c0.708,0.708 0.708,1.857 0,2.565l-2.565,2.565c-0.707,0.708 -1.857,0.708 -2.564,0l-8.849,-8.848l0,12.402c0,1.001 -0.812,1.813 -1.813,1.813l-3.628,0c-1.001,0 -1.813,-0.812 -1.813,-1.813l-0,-11.944l-8.39,8.39c-0.708,0.708 -1.857,0.708 -2.565,0l-2.565,-2.565c-0.708,-0.708 -0.708,-1.857 -0,-2.565l13.143,-13.142c0.115,-0.116 0.242,-0.212 0.377,-0.29l-0,-15.081c-4.783,-0.853 -8.996,-3.363 -12.022,-6.914l-12.353,7.131c0.255,0.411 0.347,0.923 0.212,1.426l-4.811,17.954c-0.259,0.967 -1.254,1.541 -2.221,1.282l-3.504,-0.939c-0.967,-0.259 -1.541,-1.254 -1.282,-2.221l3.423,-12.777l-12.948,7.476c-0.867,0.5 -1.977,0.203 -2.478,-0.664l-1.814,-3.141c-0.5,-0.867 -0.203,-1.977 0.664,-2.478l11.677,-6.741l-10.771,-2.887c-0.967,-0.259 -1.541,-1.254 -1.282,-2.221l0.939,-3.503c0.259,-0.967 1.254,-1.542 2.221,-1.283l17.778,4.764l12.89,-7.442c-0.806,-2.201 -1.245,-4.578 -1.245,-7.057c-0,-2.478 0.439,-4.855 1.245,-7.056l-13.381,-7.726c-0.181,0.137 -0.391,0.242 -0.623,0.304l-17.954,4.811c-0.967,0.259 -1.962,-0.316 -2.221,-1.283l-0.939,-3.503c-0.259,-0.967 0.316,-1.962 1.283,-2.221l11.731,-3.144l-11.348,-6.551c-0.867,-0.501 -1.164,-1.611 -0.664,-2.478l1.814,-3.141c0.501,-0.867 1.611,-1.164 2.478,-0.664l11.401,6.583l-3.166,-11.817c-0.259,-0.967 0.316,-1.962 1.283,-2.221l3.503,-0.939c0.967,-0.259 1.962,0.316 2.221,1.282l4.811,17.954c0.068,0.255 0.079,0.513 0.039,0.758l13.392,7.732c3.026,-3.551 7.239,-6.061 12.022,-6.914l-0,-15.07c-0.135,-0.078 -0.262,-0.174 -0.377,-0.29l-13.143,-13.143c-0.708,-0.707 -0.708,-1.857 -0,-2.564l2.565,-2.565c0.708,-0.708 1.857,-0.708 2.565,-0l8.39,8.39l-0,-11.955c-0,-1.001 0.812,-1.813 1.813,-1.813l3.628,-0c1.001,-0 1.813,0.812 1.813,1.813l0,12.413l8.849,-8.848c0.707,-0.708 1.857,-0.708 2.564,-0l2.565,2.565c0.708,0.707 0.708,1.857 0,2.564l-13.143,13.143c-0.239,0.24 -0.529,0.398 -0.835,0.476l0,14.884c4.842,0.863 9.099,3.424 12.132,7.044l12.05,-6.957c0.001,-0.15 0.021,-0.302 0.062,-0.454l4.811,-17.954c0.259,-0.966 1.254,-1.541 2.221,-1.282l3.503,0.939c0.967,0.259 1.542,1.254 1.283,2.221l-3.066,11.442l12.052,-6.959c0.867,-0.5 1.977,-0.203 2.478,0.664l1.813,3.141c0.501,0.867 0.203,1.977 -0.663,2.478l-12.395,7.156Zm-46.351,10.751c-1.905,1.535 -3.251,3.737 -3.685,6.249c-0.098,0.57 -0.149,1.157 -0.149,1.755c-0,0.599 0.051,1.186 0.149,1.756c0.434,2.512 1.78,4.714 3.685,6.249c0.84,0.678 1.789,1.225 2.816,1.613c1.128,0.426 2.35,0.66 3.627,0.66c1.277,-0 2.499,-0.234 3.627,-0.66c1.084,-0.409 2.081,-0.997 2.954,-1.726c1.876,-1.567 3.186,-3.789 3.575,-6.313c0.08,-0.515 0.121,-1.042 0.121,-1.579c0,-0.536 -0.041,-1.064 -0.121,-1.578c-0.389,-2.524 -1.699,-4.746 -3.575,-6.313c-0.873,-0.729 -1.87,-1.317 -2.954,-1.726c-1.128,-0.426 -2.35,-0.66 -3.627,-0.66c-1.277,0 -2.499,0.234 -3.627,0.66c-1.027,0.388 -1.976,0.935 -2.816,1.613Z" style="fill:#ebebeb;stroke:#000;stroke-width:1.21px;"/><path d="M431.897,319.656l12.027,3.222c0.822,0.221 1.345,0.972 1.345,1.785c-0,0.166 -0.017,0.336 -0.062,0.504l-0.939,3.504c-0.259,0.966 -1.254,1.541 -2.221,1.282l-17.954,-4.811c-0.332,-0.089 -0.618,-0.264 -0.839,-0.496l-11.898,6.869c0.769,2.156 1.187,4.478 1.187,6.896c0,2.419 -0.418,4.741 -1.187,6.897l13.497,7.792c0.115,-0.06 0.238,-0.108 0.369,-0.143l17.953,-4.811c0.967,-0.259 1.962,0.316 2.222,1.283l0.938,3.503c0.259,0.967 -0.315,1.962 -1.282,2.221l-11.368,3.047l10.607,6.123c0.866,0.501 1.164,1.611 0.663,2.478l-1.813,3.141c-0.501,0.867 -1.611,1.164 -2.478,0.664l-11.121,-6.421l3.263,12.18c0.259,0.967 -0.315,1.962 -1.282,2.221l-3.504,0.939c-0.967,0.259 -1.962,-0.315 -2.221,-1.282l-4.811,-17.954c-0.094,-0.351 -0.078,-0.706 0.027,-1.028l-13.267,-7.659c-3.033,3.62 -7.29,6.181 -12.132,7.044l0,14.895c0.306,0.078 0.596,0.236 0.835,0.476l13.143,13.142c0.708,0.708 0.708,1.857 0,2.565l-2.565,2.565c-0.707,0.708 -1.857,0.708 -2.564,0l-8.849,-8.848l0,12.402c0,1.001 -0.812,1.813 -1.813,1.813l-3.628,0c-1.001,0 -1.813,-0.812 -1.813,-1.813l-0,-11.944l-8.39,8.39c-0.708,0.708 -1.857,0.708 -2.565,0l-2.565,-2.565c-0.708,-0.708 -0.708,-1.857 -0,-2.565l13.143,-13.142c0.115,-0.116 0.242,-0.212 0.377,-0.29l-0,-15.081c-4.783,-0.853 -8.996,-3.363 -12.022,-6.914l-12.353,7.131c0.255,0.411 0.347,0.923 0.212,1.426l-4.811,17.954c-0.259,0.967 -1.254,1.541 -2.221,1.282l-3.504,-0.939c-0.967,-0.259 -1.541,-1.254 -1.282,-2.221l3.423,-12.777l-12.948,7.476c-0.867,0.5 -1.977,0.203 -2.478,-0.664l-1.814,-3.141c-0.5,-0.867 -0.203,-1.977 0.664,-2.478l11.677,-6.741l-10.771,-2.887c-0.967,-0.259 -1.541,-1.254 -1.282,-2.221l0.939,-3.503c0.259,-0.967 1.254,-1.542 2.221,-1.283l17.778,4.764l12.89,-7.442c-0.806,-2.201 -1.245,-4.578 -1.245,-7.057c-0,-2.478 0.439,-4.855 1.245,-7.056l-13.381,-7.726c-0.181,0.137 -0.391,0.242 -0.623,0.304l-17.954,4.811c-0.967,0.259 -1.962,-0.316 -2.221,-1.283l-0.939,-3.503c-0.259,-0.967 0.316,-1.962 1.283,-2.221l11.731,-3.144l-11.348,-6.551c-0.867,-0.501 -1.164,-1.611 -0.664,-2.478l1.814,-3.141c0.501,-0.867 1.611,-1.164 2.478,-0.664l11.401,6.583l-3.166,-11.817c-0.259,-0.967 0.316,-1.962 1.283,-2.221l3.503,-0.939c0.967,-0.259 1.962,0.316 2.221,1.282l4.811,17.954c0.068,0.255 0.079,0.513 0.039,0.758l13.392,7.732c3.026,-3.551 7.239,-6.061 12.022,-6.914l-0,-15.07c-0.135,-0.078 -0.262,-0.174 -0.377,-0.29l-13.143,-13.143c-0.708,-0.707 -0.708,-1.857 -0,-2.564l2.565,-2.565c0.708,-0.708 1.857,-0.708 2.565,-0l8.39,8.39l-0,-11.955c-0,-1.001 0.812,-1.813 1.813,-1.813l3.628,-0c1.001,-0 1.813,0.812 1.813,1.813l0,12.413l8.849,-8.848c0.707,-0.708 1.857,-0.708 2.564,-0l2.565,2.565c0.708,0.707 0.708,1.857 0,2.564l-13.143,13.143c-0.239,0.24 -0.529,0.398 -0.835,0.476l0,14.884c4.842,0.863 9.099,3.424 12.132,7.044l12.05,-6.957c0.001,-0.15 0.021,-0.302 0.062,-0.454l4.811,-17.954c0.259,-0.966 1.254,-1.541 2.221,-1.282l3.503,0.939c0.967,0.259 1.542,1.254 1.283,2.221l-3.066,11.442l12.052,-6.959c0.867,-0.5 1.977,-0.203 2.478,0.664l1.813,3.141c0.501,0.867 0.203,1.977 -0.663,2.478l-12.395,7.156Zm-46.351,10.751c-1.905,1.535 -3.251,3.737 -3.685,6.249c-0.098,0.57 -0.149,1.157 -0.149,1.755c-0,0.599 0.051,1.186 0.149,1.756c0.434,2.512 1.78,4.714 3.685,6.249c0.84,0.678 1.789,1.225 2.816,1.613c1.128,0.426 2.35,0.66 3.627,0.66c1.277,-0 2.499,-0.234 3.627,-0.66c1.084,-0.409 2.081,-0.997 2.954,-1.726c1.876,-1.567 3.186,-3.789 3.575,-6.313c0.08,-0.515 0.121,-1.042 0.121,-1.579c0,-0.536 -0.041,-1.064 -0.121,-1.578c-0.389,-2.524 -1.699,-4.746 -3.575,-6.313c-0.873,-0.729 -1.87,-1.317 -2.954,-1.726c-1.128,-0.426 -2.35,-0.66 -3.627,-0.66c-1.277,0 -2.499,0.234 -3.627,0.66c-1.027,0.388 -1.976,0.935 -2.816,1.613Z" style="fill:#ebebeb;stroke:#000;stroke-width:1.21px;"/><path d="M369.397,440.489l12.027,3.223c0.822,0.22 1.345,0.971 1.345,1.785c-0,0.166 -0.017,0.335 -0.062,0.503l-0.939,3.504c-0.259,0.967 -1.254,1.541 -2.221,1.282l-17.954,-4.81c-0.332,-0.089 -0.618,-0.265 -0.839,-0.497l-11.898,6.869c0.769,2.157 1.187,4.478 1.187,6.897c0,2.418 -0.418,4.74 -1.187,6.896l13.497,7.792c0.115,-0.059 0.238,-0.108 0.369,-0.143l17.953,-4.81c0.967,-0.26 1.962,0.315 2.222,1.282l0.938,3.504c0.259,0.966 -0.315,1.962 -1.282,2.221l-11.368,3.046l10.607,6.123c0.866,0.501 1.164,1.611 0.663,2.478l-1.813,3.141c-0.501,0.867 -1.611,1.164 -2.478,0.664l-11.121,-6.421l3.263,12.18c0.259,0.967 -0.315,1.963 -1.282,2.222l-3.504,0.938c-0.967,0.26 -1.962,-0.315 -2.221,-1.282l-4.811,-17.953c-0.094,-0.352 -0.078,-0.707 0.027,-1.029l-13.267,-7.659c-3.033,3.62 -7.29,6.181 -12.132,7.044l0,14.896c0.306,0.077 0.596,0.236 0.835,0.475l13.143,13.143c0.708,0.708 0.708,1.857 0,2.565l-2.565,2.564c-0.707,0.708 -1.857,0.708 -2.564,0l-8.849,-8.848l0,12.402c0,1.001 -0.812,1.814 -1.813,1.814l-3.628,-0c-1.001,-0 -1.813,-0.813 -1.813,-1.814l-0,-11.944l-8.39,8.39c-0.708,0.708 -1.857,0.708 -2.565,0l-2.565,-2.564c-0.708,-0.708 -0.708,-1.857 -0,-2.565l13.143,-13.143c0.115,-0.115 0.242,-0.212 0.377,-0.29l-0,-15.081c-4.783,-0.853 -8.996,-3.363 -12.022,-6.914l-12.353,7.132c0.255,0.411 0.347,0.922 0.212,1.426l-4.811,17.953c-0.259,0.967 -1.254,1.542 -2.221,1.282l-3.504,-0.938c-0.967,-0.259 -1.541,-1.255 -1.282,-2.222l3.423,-12.777l-12.948,7.476c-0.867,0.501 -1.977,0.203 -2.478,-0.664l-1.814,-3.141c-0.5,-0.867 -0.203,-1.977 0.664,-2.477l11.677,-6.742l-10.771,-2.886c-0.967,-0.259 -1.541,-1.255 -1.282,-2.221l0.939,-3.504c0.259,-0.967 1.254,-1.542 2.221,-1.282l17.778,4.763l12.89,-7.442c-0.806,-2.201 -1.245,-4.578 -1.245,-7.056c-0,-2.479 0.439,-4.856 1.245,-7.057l-13.381,-7.725c-0.181,0.136 -0.391,0.241 -0.623,0.304l-17.954,4.81c-0.967,0.259 -1.962,-0.315 -2.221,-1.282l-0.939,-3.504c-0.259,-0.967 0.316,-1.962 1.283,-2.221l11.731,-3.143l-11.348,-6.552c-0.867,-0.501 -1.164,-1.611 -0.664,-2.478l1.814,-3.141c0.501,-0.867 1.611,-1.164 2.478,-0.664l11.401,6.583l-3.166,-11.817c-0.259,-0.967 0.316,-1.962 1.283,-2.221l3.503,-0.939c0.967,-0.259 1.962,0.316 2.221,1.283l4.811,17.953c0.068,0.256 0.079,0.513 0.039,0.759l13.392,7.731c3.026,-3.551 7.239,-6.061 12.022,-6.914l-0,-15.07c-0.135,-0.078 -0.262,-0.174 -0.377,-0.289l-13.143,-13.143c-0.708,-0.708 -0.708,-1.857 -0,-2.565l2.565,-2.565c0.708,-0.708 1.857,-0.708 2.565,0l8.39,8.39l-0,-11.954c-0,-1.001 0.812,-1.814 1.813,-1.814l3.628,0c1.001,0 1.813,0.813 1.813,1.814l0,12.413l8.849,-8.849c0.707,-0.708 1.857,-0.708 2.564,0l2.565,2.565c0.708,0.708 0.708,1.857 0,2.565l-13.143,13.143c-0.239,0.239 -0.529,0.397 -0.835,0.475l0,14.884c4.842,0.864 9.099,3.425 12.132,7.045l12.05,-6.957c0.001,-0.15 0.021,-0.303 0.062,-0.455l4.811,-17.953c0.259,-0.967 1.254,-1.542 2.221,-1.283l3.503,0.939c0.967,0.259 1.542,1.255 1.283,2.221l-3.066,11.442l12.052,-6.958c0.867,-0.501 1.977,-0.203 2.478,0.663l1.813,3.142c0.501,0.867 0.203,1.977 -0.663,2.477l-12.395,7.156Zm-46.351,10.751c-1.905,1.536 -3.251,3.737 -3.685,6.249c-0.098,0.571 -0.149,1.157 -0.149,1.756c-0,0.598 0.051,1.185 0.149,1.755c0.434,2.513 1.78,4.714 3.685,6.25c0.84,0.677 1.789,1.225 2.816,1.613c1.128,0.426 2.35,0.659 3.627,0.659c1.277,-0 2.499,-0.233 3.627,-0.659c1.084,-0.41 2.081,-0.997 2.954,-1.727c1.876,-1.566 3.186,-3.789 3.575,-6.313c0.08,-0.514 0.121,-1.041 0.121,-1.578c0,-0.537 -0.041,-1.064 -0.121,-1.579c-0.389,-2.524 -1.699,-4.746 -3.575,-6.312c-0.873,-0.73 -1.87,-1.318 -2.954,-1.727c-1.128,-0.426 -2.35,-0.659 -3.627,-0.659c-1.277,-0 -2.499,0.233 -3.627,0.659c-1.027,0.388 -1.976,0.936 -2.816,1.613Z" style="fill:#ebebeb;stroke:#000;stroke-width:1.21px;"/><path d="M244.397,440.489l12.027,3.223c0.822,0.22 1.345,0.971 1.345,1.785c-0,0.166 -0.017,0.335 -0.062,0.503l-0.939,3.504c-0.259,0.967 -1.254,1.541 -2.221,1.282l-17.954,-4.81c-0.332,-0.089 -0.618,-0.265 -0.839,-0.497l-11.898,6.869c0.769,2.157 1.187,4.478 1.187,6.897c0,2.418 -0.418,4.74 -1.187,6.896l13.497,7.792c0.115,-0.059 0.238,-0.108 0.369,-0.143l17.953,-4.81c0.967,-0.26 1.962,0.315 2.222,1.282l0.938,3.504c0.259,0.966 -0.315,1.962 -1.282,2.221l-11.368,3.046l10.607,6.123c0.866,0.501 1.164,1.611 0.663,2.478l-1.813,3.141c-0.501,0.867 -1.611,1.164 -2.478,0.664l-11.121,-6.421l3.263,12.18c0.259,0.967 -0.315,1.963 -1.282,2.222l-3.504,0.938c-0.967,0.26 -1.962,-0.315 -2.221,-1.282l-4.811,-17.953c-0.094,-0.352 -0.078,-0.707 0.027,-1.029l-13.267,-7.659c-3.033,3.62 -7.29,6.181 -12.132,7.044l0,14.896c0.306,0.077 0.596,0.236 0.835,0.475l13.143,13.143c0.708,0.708 0.708,1.857 0,2.565l-2.565,2.564c-0.707,0.708 -1.857,0.708 -2.564,0l-8.849,-8.848l0,12.402c0,1.001 -0.812,1.814 -1.813,1.814l-3.628,-0c-1.001,-0 -1.813,-0.813 -1.813,-1.814l-0,-11.944l-8.39,8.39c-0.708,0.708 -1.857,0.708 -2.565,0l-2.565,-2.564c-0.708,-0.708 -0.708,-1.857 -0,-2.565l13.143,-13.143c0.115,-0.115 0.242,-0.212 0.377,-0.29l-0,-15.081c-4.783,-0.853 -8.996,-3.363 -12.022,-6.914l-12.353,7.132c0.255,0.411 0.347,0.922 0.212,1.426l-4.811,17.953c-0.259,0.967 -1.254,1.542 -2.221,1.282l-3.504,-0.938c-0.967,-0.259 -1.541,-1.255 -1.282,-2.222l3.423,-12.777l-12.948,7.476c-0.867,0.501 -1.977,0.203 -2.478,-0.664l-1.814,-3.141c-0.5,-0.867 -0.203,-1.977 0.664,-2.477l11.677,-6.742l-10.771,-2.886c-0.967,-0.259 -1.541,-1.255 -1.282,-2.221l0.939,-3.504c0.259,-0.967 1.254,-1.542 2.221,-1.282l17.778,4.763l12.89,-7.442c-0.806,-2.201 -1.245,-4.578 -1.245,-7.056c-0,-2.479 0.439,-4.856 1.245,-7.057l-13.381,-7.725c-0.181,0.136 -0.391,0.241 -0.623,0.304l-17.954,4.81c-0.967,0.259 -1.962,-0.315 -2.221,-1.282l-0.939,-3.504c-0.259,-0.967 0.316,-1.962 1.283,-2.221l11.731,-3.143l-11.348,-6.552c-0.867,-0.501 -1.164,-1.611 -0.664,-2.478l1.814,-3.141c0.501,-0.867 1.611,-1.164 2.478,-0.664l11.401,6.583l-3.166,-11.817c-0.259,-0.967 0.316,-1.962 1.283,-2.221l3.503,-0.939c0.967,-0.259 1.962,0.316 2.221,1.283l4.811,17.953c0.068,0.256 0.079,0.513 0.039,0.759l13.392,7.731c3.026,-3.551 7.239,-6.061 12.022,-6.914l-0,-15.07c-0.135,-0.078 -0.262,-0.174 -0.377,-0.289l-13.143,-13.143c-0.708,-0.708 -0.708,-1.857 -0,-2.565l2.565,-2.565c0.708,-0.708 1.857,-0.708 2.565,0l8.39,8.39l-0,-11.954c-0,-1.001 0.812,-1.814 1.813,-1.814l3.628,0c1.001,0 1.813,0.813 1.813,1.814l0,12.413l8.849,-8.849c0.707,-0.708 1.857,-0.708 2.564,0l2.565,2.565c0.708,0.708 0.708,1.857 0,2.565l-13.143,13.143c-0.239,0.239 -0.529,0.397 -0.835,0.475l0,14.884c4.842,0.864 9.099,3.425 12.132,7.045l12.05,-6.957c0.001,-0.15 0.021,-0.303 0.062,-0.455l4.811,-17.953c0.259,-0.967 1.254,-1.542 2.221,-1.283l3.503,0.939c0.967,0.259 1.542,1.255 1.283,2.221l-3.066,11.442l12.052,-6.958c0.867,-0.501 1.977,-0.203 2.478,0.663l1.813,3.142c0.501,0.867 0.203,1.977 -0.663,2.477l-12.395,7.156Zm-46.351,10.751c-1.905,1.536 -3.251,3.737 -3.685,6.249c-0.098,0.571 -0.149,1.157 -0.149,1.756c-0,0.598 0.051,1.185 0.149,1.755c0.434,2.513 1.78,4.714 3.685,6.25c0.84,0.677 1.789,1.225 2.816,1.613c1.128,0.426 2.35,0.659 3.627,0.659c1.277,-0 2.499,-0.233 3.627,-0.659c1.084,-0.41 2.081,-0.997 2.954,-1.727c1.876,-1.566 3.186,-3.789 3.575,-6.313c0.08,-0.514 0.121,-1.041 0.121,-1.578c0,-0.537 -0.041,-1.064 -0.121,-1.579c-0.389,-2.524 -1.699,-4.746 -3.575,-6.312c-0.873,-0.73 -1.87,-1.318 -2.954,-1.727c-1.128,-0.426 -2.35,-0.659 -3.627,-0.659c-1.277,-0 -2.499,0.233 -3.627,0.659c-1.027,0.388 -1.976,0.936 -2.816,1.613Z" style="fill:#ebebeb;stroke:#000;stroke-width:1.21px;"/><path d="M181.897,319.656l12.027,3.222c0.822,0.221 1.345,0.972 1.345,1.785c-0,0.166 -0.017,0.336 -0.062,0.504l-0.939,3.504c-0.259,0.966 -1.254,1.541 -2.221,1.282l-17.954,-4.811c-0.332,-0.089 -0.618,-0.264 -0.839,-0.496l-11.898,6.869c0.769,2.156 1.187,4.478 1.187,6.896c0,2.419 -0.418,4.741 -1.187,6.897l13.497,7.792c0.115,-0.06 0.238,-0.108 0.369,-0.143l17.953,-4.811c0.967,-0.259 1.962,0.316 2.222,1.283l0.938,3.503c0.259,0.967 -0.315,1.962 -1.282,2.221l-11.368,3.047l10.607,6.123c0.866,0.501 1.164,1.611 0.663,2.478l-1.813,3.141c-0.501,0.867 -1.611,1.164 -2.478,0.664l-11.121,-6.421l3.263,12.18c0.259,0.967 -0.315,1.962 -1.282,2.221l-3.504,0.939c-0.967,0.259 -1.962,-0.315 -2.221,-1.282l-4.811,-17.954c-0.094,-0.351 -0.078,-0.706 0.027,-1.028l-13.267,-7.659c-3.033,3.62 -7.29,6.181 -12.132,7.044l0,14.895c0.306,0.078 0.596,0.236 0.835,0.476l13.143,13.142c0.708,0.708 0.708,1.857 0,2.565l-2.565,2.565c-0.707,0.708 -1.857,0.708 -2.564,0l-8.849,-8.848l0,12.402c0,1.001 -0.812,1.813 -1.813,1.813l-3.628,0c-1.001,0 -1.813,-0.812 -1.813,-1.813l-0,-11.944l-8.39,8.39c-0.708,0.708 -1.857,0.708 -2.565,0l-2.565,-2.565c-0.708,-0.708 -0.708,-1.857 -0,-2.565l13.143,-13.142c0.115,-0.116 0.242,-0.212 0.377,-0.29l-0,-15.081c-4.783,-0.853 -8.996,-3.363 -12.022,-6.914l-12.353,7.131c0.255,0.411 0.347,0.923 0.212,1.426l-4.811,17.954c-0.259,0.967 -1.254,1.541 -2.221,1.282l-3.504,-0.939c-0.967,-0.259 -1.541,-1.254 -1.282,-2.221l3.423,-12.777l-12.948,7.476c-0.867,0.5 -1.977,0.203 -2.478,-0.664l-1.814,-3.141c-0.5,-0.867 -0.203,-1.977 0.664,-2.478l11.677,-6.741l-10.771,-2.887c-0.967,-0.259 -1.541,-1.254 -1.282,-2.221l0.939,-3.503c0.259,-0.967 1.254,-1.542 2.221,-1.283l17.778,4.764l12.89,-7.442c-0.806,-2.201 -1.245,-4.578 -1.245,-7.057c-0,-2.478 0.439,-4.855 1.245,-7.056l-13.381,-7.726c-0.181,0.137 -0.391,0.242 -0.623,0.304l-17.954,4.811c-0.967,0.259 -1.962,-0.316 -2.221,-1.283l-0.939,-3.503c-0.259,-0.967 0.316,-1.962 1.283,-2.221l11.731,-3.144l-11.348,-6.551c-0.867,-0.501 -1.164,-1.611 -0.664,-2.478l1.814,-3.141c0.501,-0.867 1.611,-1.164 2.478,-0.664l11.401,6.583l-3.166,-11.817c-0.259,-0.967 0.316,-1.962 1.283,-2.221l3.503,-0.939c0.967,-0.259 1.962,0.316 2.221,1.282l4.811,17.954c0.068,0.255 0.079,0.513 0.039,0.758l13.392,7.732c3.026,-3.551 7.239,-6.061 12.022,-6.914l-0,-15.07c-0.135,-0.078 -0.262,-0.174 -0.377,-0.29l-13.143,-13.143c-0.708,-0.707 -0.708,-1.857 -0,-2.564l2.565,-2.565c0.708,-0.708 1.857,-0.708 2.565,-0l8.39,8.39l-0,-11.955c-0,-1.001 0.812,-1.813 1.813,-1.813l3.628,-0c1.001,-0 1.813,0.812 1.813,1.813l0,12.413l8.849,-8.848c0.707,-0.708 1.857,-0.708 2.564,-0l2.565,2.565c0.708,0.707 0.708,1.857 0,2.564l-13.143,13.143c-0.239,0.24 -0.529,0.398 -0.835,0.476l0,14.884c4.842,0.863 9.099,3.424 12.132,7.044l12.05,-6.957c0.001,-0.15 0.021,-0.302 0.062,-0.454l4.811,-17.954c0.259,-0.966 1.254,-1.541 2.221,-1.282l3.503,0.939c0.967,0.259 1.542,1.254 1.283,2.221l-3.066,11.442l12.052,-6.959c0.867,-0.5 1.977,-0.203 2.478,0.664l1.813,3.141c0.501,0.867 0.203,1.977 -0.663,2.478l-12.395,7.156Zm-46.351,10.751c-1.905,1.535 -3.251,3.737 -3.685,6.249c-0.098,0.57 -0.149,1.157 -0.149,1.755c-0,0.599 0.051,1.186 0.149,1.756c0.434,2.512 1.78,4.714 3.685,6.249c0.84,0.678 1.789,1.225 2.816,1.613c1.128,0.426 2.35,0.66 3.627,0.66c1.277,-0 2.499,-0.234 3.627,-0.66c1.084,-0.409 2.081,-0.997 2.954,-1.726c1.876,-1.567 3.186,-3.789 3.575,-6.313c0.08,-0.515 0.121,-1.042 0.121,-1.579c0,-0.536 -0.041,-1.064 -0.121,-1.578c-0.389,-2.524 -1.699,-4.746 -3.575,-6.313c-0.873,-0.729 -1.87,-1.317 -2.954,-1.726c-1.128,-0.426 -2.35,-0.66 -3.627,-0.66c-1.277,0 -2.499,0.234 -3.627,0.66c-1.027,0.388 -1.976,0.935 -2.816,1.613Z" style="fill:#ebebeb;stroke:#000;stroke-width:1.21px;"/><defs><linearGradient id="_Linear1" x1="0" y1="0" x2="1" y2="0" gradientUnits="userSpaceOnUse" gradientTransform="matrix(183.333,191.667,-191.667,183.333,320.833,204.167)"><stop offset="0" style="stop-color:#606060;stop-opacity:1"/><stop offset="1" style="stop-color:#333;stop-opacity:1"/></linearGradient></defs></svg>