<?xml version="1.0" encoding="UTF-8" standalone="no"?>
<!DOCTYPE svg PUBLIC "-//W3C//DTD SVG 1.1//EN" "http://www.w3.org/Graphics/SVG/1.1/DTD/svg11.dtd">
<svg width="100%" height="100%" viewBox="0 0 128 128" version="1.1" xmlns="http://www.w3.org/2000/svg" xmlns:xlink="http://www.w3.org/1999/xlink" xml:space="preserve" xmlns:serif="http://www.serif.com/" style="fill-rule:evenodd;clip-rule:evenodd;stroke-linecap:round;stroke-linejoin:round;stroke-miterlimit:1.5;">
    <g transform="matrix(1,0,0,1,0,-22.7607)">
        <path d="M30,120.996C14.501,120.728 2,108.063 2,92.5C2,76.77 14.77,64 30.5,64C32.866,64 35.166,64.289 37.364,64.834C42.278,45.344 59.893,30.858 80.911,30.761C105.813,30.646 126.124,50.77 126.239,75.672C126.354,100.574 106.23,120.885 81.328,121C80.884,121.002 80.441,120.997 80,120.986L80,121L30.5,121C30.333,121 30.166,120.999 30,120.996Z" style="fill:url(#_Linear1);"/>
    </g>
    <g transform="matrix(0.580357,0,0,0.580357,29.5089,74.6875)">
        <path d="M81.003,51.744L85.977,53.077C86.317,53.168 86.533,53.478 86.533,53.815C86.533,53.883 86.526,53.953 86.508,54.023L86.119,55.472C86.012,55.872 85.601,56.109 85.201,56.002L77.776,54.013C77.639,53.976 77.521,53.903 77.429,53.807L72.509,56.648C72.827,57.54 73,58.5 73,59.5C73,60.5 72.827,61.46 72.509,62.352L78.09,65.574C78.138,65.55 78.189,65.53 78.243,65.515L85.668,63.526C86.067,63.419 86.479,63.656 86.586,64.056L86.974,65.505C87.081,65.905 86.844,66.316 86.444,66.423L81.743,67.683L86.129,70.215C86.488,70.422 86.611,70.882 86.404,71.24L85.654,72.539C85.447,72.898 84.988,73.021 84.629,72.814L80.03,70.158L81.38,75.195C81.487,75.595 81.249,76.007 80.849,76.114L79.4,76.502C79.001,76.609 78.589,76.372 78.482,75.972L76.492,68.547C76.453,68.402 76.46,68.255 76.503,68.122L71.017,64.955C69.762,66.452 68.002,67.511 66,67.868L66,74.028C66.127,74.06 66.246,74.125 66.345,74.224L71.78,79.659C72.073,79.952 72.073,80.427 71.78,80.72L70.72,81.78C70.427,82.073 69.952,82.073 69.659,81.78L66,78.121L66,83.25C66,83.664 65.664,84 65.25,84L63.75,84C63.336,84 63,83.664 63,83.25L63,78.311L59.53,81.78C59.238,82.073 58.762,82.073 58.47,81.78L57.409,80.72C57.116,80.427 57.116,79.952 57.409,79.659L62.844,74.224C62.892,74.176 62.944,74.137 63,74.104L63,67.868C61.022,67.515 59.28,66.477 58.028,65.008L52.92,67.958C53.026,68.128 53.063,68.339 53.008,68.547L51.018,75.972C50.911,76.372 50.499,76.609 50.1,76.502L48.651,76.114C48.251,76.007 48.013,75.595 48.12,75.195L49.536,69.911L44.181,73.003C43.823,73.21 43.364,73.087 43.157,72.729L42.407,71.429C42.2,71.071 42.323,70.612 42.681,70.405L47.51,67.617L43.056,66.423C42.656,66.316 42.419,65.905 42.526,65.505L42.914,64.056C43.021,63.656 43.433,63.419 43.832,63.526L51.185,65.496L56.515,62.418C56.182,61.508 56,60.525 56,59.5C56,58.475 56.182,57.492 56.515,56.582L50.981,53.387C50.907,53.444 50.82,53.487 50.724,53.513L43.299,55.502C42.899,55.609 42.488,55.372 42.381,54.972L41.992,53.523C41.885,53.123 42.123,52.711 42.523,52.604L47.374,51.304L42.681,48.595C42.323,48.388 42.2,47.929 42.407,47.571L43.157,46.271C43.364,45.913 43.823,45.79 44.181,45.997L48.897,48.719L47.587,43.832C47.48,43.433 47.718,43.021 48.117,42.914L49.566,42.526C49.966,42.419 50.378,42.656 50.485,43.056L52.474,50.481C52.503,50.586 52.507,50.693 52.49,50.794L58.028,53.992C59.28,52.523 61.022,51.485 63,51.132L63,44.9C62.944,44.868 62.892,44.828 62.844,44.78L57.409,39.345C57.116,39.053 57.116,38.577 57.409,38.285L58.47,37.224C58.762,36.931 59.238,36.931 59.53,37.224L63,40.694L63,35.75C63,35.336 63.336,35 63.75,35L65.25,35C65.664,35 66,35.336 66,35.75L66,40.883L69.659,37.224C69.952,36.931 70.427,36.931 70.72,37.224L71.78,38.285C72.073,38.577 72.073,39.053 71.78,39.345L66.345,44.78C66.246,44.879 66.127,44.945 66,44.977L66,51.132C68.002,51.489 69.762,52.548 71.017,54.045L76,51.168C76.001,51.106 76.009,51.043 76.026,50.981L78.015,43.556C78.122,43.156 78.534,42.919 78.934,43.026L80.383,43.414C80.782,43.521 81.02,43.933 80.913,44.332L79.645,49.064L84.629,46.186C84.988,45.979 85.447,46.102 85.654,46.461L86.404,47.76C86.611,48.118 86.488,48.578 86.129,48.785L81.003,51.744ZM61.836,56.19C61.048,56.825 60.491,57.735 60.312,58.774C60.271,59.01 60.25,59.253 60.25,59.5C60.25,59.747 60.271,59.99 60.312,60.226C60.491,61.265 61.048,62.175 61.836,62.81C62.183,63.09 62.575,63.317 63,63.477C63.467,63.654 63.972,63.75 64.5,63.75C65.028,63.75 65.533,63.654 66,63.477C66.448,63.308 66.86,63.065 67.222,62.763C67.997,62.116 68.539,61.197 68.7,60.153C68.733,59.94 68.75,59.722 68.75,59.5C68.75,59.278 68.733,59.06 68.7,58.847C68.539,57.803 67.997,56.884 67.222,56.237C66.86,55.935 66.448,55.692 66,55.523C65.533,55.346 65.028,55.25 64.5,55.25C63.972,55.25 63.467,55.346 63,55.523C62.575,55.683 62.183,55.91 61.836,56.19Z" style="fill:rgb(235,235,235);stroke:black;stroke-width:0.5px;"/>
    </g>
    <g transform="matrix(0.580357,0,0,0.580357,57.5089,74.6875)">
        <path d="M81.003,51.744L85.977,53.077C86.317,53.168 86.533,53.478 86.533,53.815C86.533,53.883 86.526,53.953 86.508,54.023L86.119,55.472C86.012,55.872 85.601,56.109 85.201,56.002L77.776,54.013C77.639,53.976 77.521,53.903 77.429,53.807L72.509,56.648C72.827,57.54 73,58.5 73,59.5C73,60.5 72.827,61.46 72.509,62.352L78.09,65.574C78.138,65.55 78.189,65.53 78.243,65.515L85.668,63.526C86.067,63.419 86.479,63.656 86.586,64.056L86.974,65.505C87.081,65.905 86.844,66.316 86.444,66.423L81.743,67.683L86.129,70.215C86.488,70.422 86.611,70.882 86.404,71.24L85.654,72.539C85.447,72.898 84.988,73.021 84.629,72.814L80.03,70.158L81.38,75.195C81.487,75.595 81.249,76.007 80.849,76.114L79.4,76.502C79.001,76.609 78.589,76.372 78.482,75.972L76.492,68.547C76.453,68.402 76.46,68.255 76.503,68.122L71.017,64.955C69.762,66.452 68.002,67.511 66,67.868L66,74.028C66.127,74.06 66.246,74.125 66.345,74.224L71.78,79.659C72.073,79.952 72.073,80.427 71.78,80.72L70.72,81.78C70.427,82.073 69.952,82.073 69.659,81.78L66,78.121L66,83.25C66,83.664 65.664,84 65.25,84L63.75,84C63.336,84 63,83.664 63,83.25L63,78.311L59.53,81.78C59.238,82.073 58.762,82.073 58.47,81.78L57.409,80.72C57.116,80.427 57.116,79.952 57.409,79.659L62.844,74.224C62.892,74.176 62.944,74.137 63,74.104L63,67.868C61.022,67.515 59.28,66.477 58.028,65.008L52.92,67.958C53.026,68.128 53.063,68.339 53.008,68.547L51.018,75.972C50.911,76.372 50.499,76.609 50.1,76.502L48.651,76.114C48.251,76.007 48.013,75.595 48.12,75.195L49.536,69.911L44.181,73.003C43.823,73.21 43.364,73.087 43.157,72.729L42.407,71.429C42.2,71.071 42.323,70.612 42.681,70.405L47.51,67.617L43.056,66.423C42.656,66.316 42.419,65.905 42.526,65.505L42.914,64.056C43.021,63.656 43.433,63.419 43.832,63.526L51.185,65.496L56.515,62.418C56.182,61.508 56,60.525 56,59.5C56,58.475 56.182,57.492 56.515,56.582L50.981,53.387C50.907,53.444 50.82,53.487 50.724,53.513L43.299,55.502C42.899,55.609 42.488,55.372 42.381,54.972L41.992,53.523C41.885,53.123 42.123,52.711 42.523,52.604L47.374,51.304L42.681,48.595C42.323,48.388 42.2,47.929 42.407,47.571L43.157,46.271C43.364,45.913 43.823,45.79 44.181,45.997L48.897,48.719L47.587,43.832C47.48,43.433 47.718,43.021 48.117,42.914L49.566,42.526C49.966,42.419 50.378,42.656 50.485,43.056L52.474,50.481C52.503,50.586 52.507,50.693 52.49,50.794L58.028,53.992C59.28,52.523 61.022,51.485 63,51.132L63,44.9C62.944,44.868 62.892,44.828 62.844,44.78L57.409,39.345C57.116,39.053 57.116,38.577 57.409,38.285L58.47,37.224C58.762,36.931 59.238,36.931 59.53,37.224L63,40.694L63,35.75C63,35.336 63.336,35 63.75,35L65.25,35C65.664,35 66,35.336 66,35.75L66,40.883L69.659,37.224C69.952,36.931 70.427,36.931 70.72,37.224L71.78,38.285C72.073,38.577 72.073,39.053 71.78,39.345L66.345,44.78C66.246,44.879 66.127,44.945 66,44.977L66,51.132C68.002,51.489 69.762,52.548 71.017,54.045L76,51.168C76.001,51.106 76.009,51.043 76.026,50.981L78.015,43.556C78.122,43.156 78.534,42.919 78.934,43.026L80.383,43.414C80.782,43.521 81.02,43.933 80.913,44.332L79.645,49.064L84.629,46.186C84.988,45.979 85.447,46.102 85.654,46.461L86.404,47.76C86.611,48.118 86.488,48.578 86.129,48.785L81.003,51.744ZM61.836,56.19C61.048,56.825 60.491,57.735 60.312,58.774C60.271,59.01 60.25,59.253 60.25,59.5C60.25,59.747 60.271,59.99 60.312,60.226C60.491,61.265 61.048,62.175 61.836,62.81C62.183,63.09 62.575,63.317 63,63.477C63.467,63.654 63.972,63.75 64.5,63.75C65.028,63.75 65.533,63.654 66,63.477C66.448,63.308 66.86,63.065 67.222,62.763C67.997,62.116 68.539,61.197 68.7,60.153C68.733,59.94 68.75,59.722 68.75,59.5C68.75,59.278 68.733,59.06 68.7,58.847C68.539,57.803 67.997,56.884 67.222,56.237C66.86,55.935 66.448,55.692 66,55.523C65.533,55.346 65.028,55.25 64.5,55.25C63.972,55.25 63.467,55.346 63,55.523C62.575,55.683 62.183,55.91 61.836,56.19Z" style="fill:rgb(235,235,235);stroke:black;stroke-width:0.5px;"/>
    </g>
    <g transform="matrix(0.580357,0,0,0.580357,43.5089,46.25)">
        <path d="M81.003,51.744L85.977,53.077C86.317,53.168 86.533,53.478 86.533,53.815C86.533,53.883 86.526,53.953 86.508,54.023L86.119,55.472C86.012,55.872 85.601,56.109 85.201,56.002L77.776,54.013C77.639,53.976 77.521,53.903 77.429,53.807L72.509,56.648C72.827,57.54 73,58.5 73,59.5C73,60.5 72.827,61.46 72.509,62.352L78.09,65.574C78.138,65.55 78.189,65.53 78.243,65.515L85.668,63.526C86.067,63.419 86.479,63.656 86.586,64.056L86.974,65.505C87.081,65.905 86.844,66.316 86.444,66.423L81.743,67.683L86.129,70.215C86.488,70.422 86.611,70.882 86.404,71.24L85.654,72.539C85.447,72.898 84.988,73.021 84.629,72.814L80.03,70.158L81.38,75.195C81.487,75.595 81.249,76.007 80.849,76.114L79.4,76.502C79.001,76.609 78.589,76.372 78.482,75.972L76.492,68.547C76.453,68.402 76.46,68.255 76.503,68.122L71.017,64.955C69.762,66.452 68.002,67.511 66,67.868L66,74.028C66.127,74.06 66.246,74.125 66.345,74.224L71.78,79.659C72.073,79.952 72.073,80.427 71.78,80.72L70.72,81.78C70.427,82.073 69.952,82.073 69.659,81.78L66,78.121L66,83.25C66,83.664 65.664,84 65.25,84L63.75,84C63.336,84 63,83.664 63,83.25L63,78.311L59.53,81.78C59.238,82.073 58.762,82.073 58.47,81.78L57.409,80.72C57.116,80.427 57.116,79.952 57.409,79.659L62.844,74.224C62.892,74.176 62.944,74.137 63,74.104L63,67.868C61.022,67.515 59.28,66.477 58.028,65.008L52.92,67.958C53.026,68.128 53.063,68.339 53.008,68.547L51.018,75.972C50.911,76.372 50.499,76.609 50.1,76.502L48.651,76.114C48.251,76.007 48.013,75.595 48.12,75.195L49.536,69.911L44.181,73.003C43.823,73.21 43.364,73.087 43.157,72.729L42.407,71.429C42.2,71.071 42.323,70.612 42.681,70.405L47.51,67.617L43.056,66.423C42.656,66.316 42.419,65.905 42.526,65.505L42.914,64.056C43.021,63.656 43.433,63.419 43.832,63.526L51.185,65.496L56.515,62.418C56.182,61.508 56,60.525 56,59.5C56,58.475 56.182,57.492 56.515,56.582L50.981,53.387C50.907,53.444 50.82,53.487 50.724,53.513L43.299,55.502C42.899,55.609 42.488,55.372 42.381,54.972L41.992,53.523C41.885,53.123 42.123,52.711 42.523,52.604L47.374,51.304L42.681,48.595C42.323,48.388 42.2,47.929 42.407,47.571L43.157,46.271C43.364,45.913 43.823,45.79 44.181,45.997L48.897,48.719L47.587,43.832C47.48,43.433 47.718,43.021 48.117,42.914L49.566,42.526C49.966,42.419 50.378,42.656 50.485,43.056L52.474,50.481C52.503,50.586 52.507,50.693 52.49,50.794L58.028,53.992C59.28,52.523 61.022,51.485 63,51.132L63,44.9C62.944,44.868 62.892,44.828 62.844,44.78L57.409,39.345C57.116,39.053 57.116,38.577 57.409,38.285L58.47,37.224C58.762,36.931 59.238,36.931 59.53,37.224L63,40.694L63,35.75C63,35.336 63.336,35 63.75,35L65.25,35C65.664,35 66,35.336 66,35.75L66,40.883L69.659,37.224C69.952,36.931 70.427,36.931 70.72,37.224L71.78,38.285C72.073,38.577 72.073,39.053 71.78,39.345L66.345,44.78C66.246,44.879 66.127,44.945 66,44.977L66,51.132C68.002,51.489 69.762,52.548 71.017,54.045L76,51.168C76.001,51.106 76.009,51.043 76.026,50.981L78.015,43.556C78.122,43.156 78.534,42.919 78.934,43.026L80.383,43.414C80.782,43.521 81.02,43.933 80.913,44.332L79.645,49.064L84.629,46.186C84.988,45.979 85.447,46.102 85.654,46.461L86.404,47.76C86.611,48.118 86.488,48.578 86.129,48.785L81.003,51.744ZM61.836,56.19C61.048,56.825 60.491,57.735 60.312,58.774C60.271,59.01 60.25,59.253 60.25,59.5C60.25,59.747 60.271,59.99 60.312,60.226C60.491,61.265 61.048,62.175 61.836,62.81C62.183,63.09 62.575,63.317 63,63.477C63.467,63.654 63.972,63.75 64.5,63.75C65.028,63.75 65.533,63.654 66,63.477C66.448,63.308 66.86,63.065 67.222,62.763C67.997,62.116 68.539,61.197 68.7,60.153C68.733,59.94 68.75,59.722 68.75,59.5C68.75,59.278 68.733,59.06 68.7,58.847C68.539,57.803 67.997,56.884 67.222,56.237C66.86,55.935 66.448,55.692 66,55.523C65.533,55.346 65.028,55.25 64.5,55.25C63.972,55.25 63.467,55.346 63,55.523C62.575,55.683 62.183,55.91 61.836,56.19Z" style="fill:rgb(235,235,235);stroke:black;stroke-width:0.5px;"/>
    </g>
    <g transform="matrix(0.580357,0,0,0.580357,15.5089,46.25)">
        <path d="M81.003,51.744L85.977,53.077C86.317,53.168 86.533,53.478 86.533,53.815C86.533,53.883 86.526,53.953 86.508,54.023L86.119,55.472C86.012,55.872 85.601,56.109 85.201,56.002L77.776,54.013C77.639,53.976 77.521,53.903 77.429,53.807L72.509,56.648C72.827,57.54 73,58.5 73,59.5C73,60.5 72.827,61.46 72.509,62.352L78.09,65.574C78.138,65.55 78.189,65.53 78.243,65.515L85.668,63.526C86.067,63.419 86.479,63.656 86.586,64.056L86.974,65.505C87.081,65.905 86.844,66.316 86.444,66.423L81.743,67.683L86.129,70.215C86.488,70.422 86.611,70.882 86.404,71.24L85.654,72.539C85.447,72.898 84.988,73.021 84.629,72.814L80.03,70.158L81.38,75.195C81.487,75.595 81.249,76.007 80.849,76.114L79.4,76.502C79.001,76.609 78.589,76.372 78.482,75.972L76.492,68.547C76.453,68.402 76.46,68.255 76.503,68.122L71.017,64.955C69.762,66.452 68.002,67.511 66,67.868L66,74.028C66.127,74.06 66.246,74.125 66.345,74.224L71.78,79.659C72.073,79.952 72.073,80.427 71.78,80.72L70.72,81.78C70.427,82.073 69.952,82.073 69.659,81.78L66,78.121L66,83.25C66,83.664 65.664,84 65.25,84L63.75,84C63.336,84 63,83.664 63,83.25L63,78.311L59.53,81.78C59.238,82.073 58.762,82.073 58.47,81.78L57.409,80.72C57.116,80.427 57.116,79.952 57.409,79.659L62.844,74.224C62.892,74.176 62.944,74.137 63,74.104L63,67.868C61.022,67.515 59.28,66.477 58.028,65.008L52.92,67.958C53.026,68.128 53.063,68.339 53.008,68.547L51.018,75.972C50.911,76.372 50.499,76.609 50.1,76.502L48.651,76.114C48.251,76.007 48.013,75.595 48.12,75.195L49.536,69.911L44.181,73.003C43.823,73.21 43.364,73.087 43.157,72.729L42.407,71.429C42.2,71.071 42.323,70.612 42.681,70.405L47.51,67.617L43.056,66.423C42.656,66.316 42.419,65.905 42.526,65.505L42.914,64.056C43.021,63.656 43.433,63.419 43.832,63.526L51.185,65.496L56.515,62.418C56.182,61.508 56,60.525 56,59.5C56,58.475 56.182,57.492 56.515,56.582L50.981,53.387C50.907,53.444 50.82,53.487 50.724,53.513L43.299,55.502C42.899,55.609 42.488,55.372 42.381,54.972L41.992,53.523C41.885,53.123 42.123,52.711 42.523,52.604L47.374,51.304L42.681,48.595C42.323,48.388 42.2,47.929 42.407,47.571L43.157,46.271C43.364,45.913 43.823,45.79 44.181,45.997L48.897,48.719L47.587,43.832C47.48,43.433 47.718,43.021 48.117,42.914L49.566,42.526C49.966,42.419 50.378,42.656 50.485,43.056L52.474,50.481C52.503,50.586 52.507,50.693 52.49,50.794L58.028,53.992C59.28,52.523 61.022,51.485 63,51.132L63,44.9C62.944,44.868 62.892,44.828 62.844,44.78L57.409,39.345C57.116,39.053 57.116,38.577 57.409,38.285L58.47,37.224C58.762,36.931 59.238,36.931 59.53,37.224L63,40.694L63,35.75C63,35.336 63.336,35 63.75,35L65.25,35C65.664,35 66,35.336 66,35.75L66,40.883L69.659,37.224C69.952,36.931 70.427,36.931 70.72,37.224L71.78,38.285C72.073,38.577 72.073,39.053 71.78,39.345L66.345,44.78C66.246,44.879 66.127,44.945 66,44.977L66,51.132C68.002,51.489 69.762,52.548 71.017,54.045L76,51.168C76.001,51.106 76.009,51.043 76.026,50.981L78.015,43.556C78.122,43.156 78.534,42.919 78.934,43.026L80.383,43.414C80.782,43.521 81.02,43.933 80.913,44.332L79.645,49.064L84.629,46.186C84.988,45.979 85.447,46.102 85.654,46.461L86.404,47.76C86.611,48.118 86.488,48.578 86.129,48.785L81.003,51.744ZM61.836,56.19C61.048,56.825 60.491,57.735 60.312,58.774C60.271,59.01 60.25,59.253 60.25,59.5C60.25,59.747 60.271,59.99 60.312,60.226C60.491,61.265 61.048,62.175 61.836,62.81C62.183,63.09 62.575,63.317 63,63.477C63.467,63.654 63.972,63.75 64.5,63.75C65.028,63.75 65.533,63.654 66,63.477C66.448,63.308 66.86,63.065 67.222,62.763C67.997,62.116 68.539,61.197 68.7,60.153C68.733,59.94 68.75,59.722 68.75,59.5C68.75,59.278 68.733,59.06 68.7,58.847C68.539,57.803 67.997,56.884 67.222,56.237C66.86,55.935 66.448,55.692 66,55.523C65.533,55.346 65.028,55.25 64.5,55.25C63.972,55.25 63.467,55.346 63,55.523C62.575,55.683 62.183,55.91 61.836,56.19Z" style="fill:rgb(235,235,235);stroke:black;stroke-width:0.5px;"/>
    </g>
    <g transform="matrix(0.580357,0,0,0.580357,1.50893,74.6875)">
        <path d="M81.003,51.744L85.977,53.077C86.317,53.168 86.533,53.478 86.533,53.815C86.533,53.883 86.526,53.953 86.508,54.023L86.119,55.472C86.012,55.872 85.601,56.109 85.201,56.002L77.776,54.013C77.639,53.976 77.521,53.903 77.429,53.807L72.509,56.648C72.827,57.54 73,58.5 73,59.5C73,60.5 72.827,61.46 72.509,62.352L78.09,65.574C78.138,65.55 78.189,65.53 78.243,65.515L85.668,63.526C86.067,63.419 86.479,63.656 86.586,64.056L86.974,65.505C87.081,65.905 86.844,66.316 86.444,66.423L81.743,67.683L86.129,70.215C86.488,70.422 86.611,70.882 86.404,71.24L85.654,72.539C85.447,72.898 84.988,73.021 84.629,72.814L80.03,70.158L81.38,75.195C81.487,75.595 81.249,76.007 80.849,76.114L79.4,76.502C79.001,76.609 78.589,76.372 78.482,75.972L76.492,68.547C76.453,68.402 76.46,68.255 76.503,68.122L71.017,64.955C69.762,66.452 68.002,67.511 66,67.868L66,74.028C66.127,74.06 66.246,74.125 66.345,74.224L71.78,79.659C72.073,79.952 72.073,80.427 71.78,80.72L70.72,81.78C70.427,82.073 69.952,82.073 69.659,81.78L66,78.121L66,83.25C66,83.664 65.664,84 65.25,84L63.75,84C63.336,84 63,83.664 63,83.25L63,78.311L59.53,81.78C59.238,82.073 58.762,82.073 58.47,81.78L57.409,80.72C57.116,80.427 57.116,79.952 57.409,79.659L62.844,74.224C62.892,74.176 62.944,74.137 63,74.104L63,67.868C61.022,67.515 59.28,66.477 58.028,65.008L52.92,67.958C53.026,68.128 53.063,68.339 53.008,68.547L51.018,75.972C50.911,76.372 50.499,76.609 50.1,76.502L48.651,76.114C48.251,76.007 48.013,75.595 48.12,75.195L49.536,69.911L44.181,73.003C43.823,73.21 43.364,73.087 43.157,72.729L42.407,71.429C42.2,71.071 42.323,70.612 42.681,70.405L47.51,67.617L43.056,66.423C42.656,66.316 42.419,65.905 42.526,65.505L42.914,64.056C43.021,63.656 43.433,63.419 43.832,63.526L51.185,65.496L56.515,62.418C56.182,61.508 56,60.525 56,59.5C56,58.475 56.182,57.492 56.515,56.582L50.981,53.387C50.907,53.444 50.82,53.487 50.724,53.513L43.299,55.502C42.899,55.609 42.488,55.372 42.381,54.972L41.992,53.523C41.885,53.123 42.123,52.711 42.523,52.604L47.374,51.304L42.681,48.595C42.323,48.388 42.2,47.929 42.407,47.571L43.157,46.271C43.364,45.913 43.823,45.79 44.181,45.997L48.897,48.719L47.587,43.832C47.48,43.433 47.718,43.021 48.117,42.914L49.566,42.526C49.966,42.419 50.378,42.656 50.485,43.056L52.474,50.481C52.503,50.586 52.507,50.693 52.49,50.794L58.028,53.992C59.28,52.523 61.022,51.485 63,51.132L63,44.9C62.944,44.868 62.892,44.828 62.844,44.78L57.409,39.345C57.116,39.053 57.116,38.577 57.409,38.285L58.47,37.224C58.762,36.931 59.238,36.931 59.53,37.224L63,40.694L63,35.75C63,35.336 63.336,35 63.75,35L65.25,35C65.664,35 66,35.336 66,35.75L66,40.883L69.659,37.224C69.952,36.931 70.427,36.931 70.72,37.224L71.78,38.285C72.073,38.577 72.073,39.053 71.78,39.345L66.345,44.78C66.246,44.879 66.127,44.945 66,44.977L66,51.132C68.002,51.489 69.762,52.548 71.017,54.045L76,51.168C76.001,51.106 76.009,51.043 76.026,50.981L78.015,43.556C78.122,43.156 78.534,42.919 78.934,43.026L80.383,43.414C80.782,43.521 81.02,43.933 80.913,44.332L79.645,49.064L84.629,46.186C84.988,45.979 85.447,46.102 85.654,46.461L86.404,47.76C86.611,48.118 86.488,48.578 86.129,48.785L81.003,51.744ZM61.836,56.19C61.048,56.825 60.491,57.735 60.312,58.774C60.271,59.01 60.25,59.253 60.25,59.5C60.25,59.747 60.271,59.99 60.312,60.226C60.491,61.265 61.048,62.175 61.836,62.81C62.183,63.09 62.575,63.317 63,63.477C63.467,63.654 63.972,63.75 64.5,63.75C65.028,63.75 65.533,63.654 66,63.477C66.448,63.308 66.86,63.065 67.222,62.763C67.997,62.116 68.539,61.197 68.7,60.153C68.733,59.94 68.75,59.722 68.75,59.5C68.75,59.278 68.733,59.06 68.7,58.847C68.539,57.803 67.997,56.884 67.222,56.237C66.86,55.935 66.448,55.692 66,55.523C65.533,55.346 65.028,55.25 64.5,55.25C63.972,55.25 63.467,55.346 63,55.523C62.575,55.683 62.183,55.91 61.836,56.19Z" style="fill:rgb(235,235,235);stroke:black;stroke-width:0.5px;"/>
    </g>
    <defs>
        <linearGradient id="_Linear1" x1="0" y1="0" x2="1" y2="0" gradientUnits="userSpaceOnUse" gradientTransform="matrix(44,46,-46,44,77,71.7607)"><stop offset="0" style="stop-color:rgb(96,96,96);stop-opacity:1"/><stop offset="1" style="stop-color:rgb(51,51,51);stop-opacity:1"/></linearGradient>
    </defs>
</svg>
