<?xml version="1.0" encoding="UTF-8" standalone="no"?>
<!DOCTYPE svg PUBLIC "-//W3C//DTD SVG 1.1//EN" "http://www.w3.org/Graphics/SVG/1.1/DTD/svg11.dtd">
<svg width="100%" height="100%" viewBox="0 0 128 128" version="1.1" xmlns="http://www.w3.org/2000/svg" xmlns:xlink="http://www.w3.org/1999/xlink" xml:space="preserve" xmlns:serif="http://www.serif.com/" style="fill-rule:evenodd;clip-rule:evenodd;stroke-linejoin:round;stroke-miterlimit:2;">
    <g transform="matrix(1,0,0,1,0,-27.7607)">
        <path d="M30,120.996C14.501,120.728 2,108.063 2,92.5C2,76.77 14.77,64 30.5,64C32.866,64 35.166,64.289 37.364,64.834C42.278,45.344 59.893,30.858 80.911,30.761C105.813,30.646 126.124,50.77 126.239,75.672C126.354,100.574 106.23,120.885 81.328,121C80.884,121.002 80.441,120.997 80,120.986L80,121L30.5,121C30.333,121 30.166,120.999 30,120.996Z" style="fill:url(#_Linear1);"/>
    </g>
    <g transform="matrix(1,0,0,1,-40,38)">
        <path d="M62,63L54,63L64.083,43L82,43L74.738,58L80.536,58L62,79L62,63Z" style="fill:rgb(255,194,0);"/>
    </g>
    <g transform="matrix(1.77362,0,0,1.77362,-30.7754,-16.2656)">
        <path d="M62,63L54,63L64.083,43L82,43L74.738,58L80.536,58L62,79L62,63Z" style="fill:rgb(255,194,0);"/>
    </g>
    <g transform="matrix(0.654952,0,0,0.654952,8.29392,69.8371)">
        <path d="M62,63L54,63L64.083,43L82,43L74.738,58L80.536,58L62,79L62,63Z" style="fill:rgb(255,194,0);"/>
    </g>
    <defs>
        <linearGradient id="_Linear1" x1="0" y1="0" x2="1" y2="0" gradientUnits="userSpaceOnUse" gradientTransform="matrix(44,46,-46,44,77,71.7607)"><stop offset="0" style="stop-color:rgb(96,96,96);stop-opacity:1"/><stop offset="1" style="stop-color:rgb(51,51,51);stop-opacity:1"/></linearGradient>
    </defs>
</svg>
