<?xml version="1.0" encoding="UTF-8" standalone="no"?><!DOCTYPE svg PUBLIC "-//W3C//DTD SVG 1.1//EN" "http://www.w3.org/Graphics/SVG/1.1/DTD/svg11.dtd"><svg width="100%" height="100%" viewBox="0 0 534 534" version="1.1" xmlns="http://www.w3.org/2000/svg" xmlns:xlink="http://www.w3.org/1999/xlink" xml:space="preserve" xmlns:serif="http://www.serif.com/" style="fill-rule:evenodd;clip-rule:evenodd;stroke-linejoin:round;stroke-miterlimit:2;"><path d="M558.333,258.333l0,233.334l-579.166,-0l-0,-233.334c-0,0 10.675,4.493 25,4.167c26.747,-0.609 19.505,-24.666 50,-25c30.317,-0.332 19.129,25.218 54.166,25c31.044,-0.193 23.218,-25.424 54.167,-25c29.351,0.402 23,23.979 54.167,25c32.033,1.05 25.588,-25.141 54.166,-25c27.649,0.136 22.048,23.746 50,25c33.293,1.493 27.793,-25.639 54.167,-25c28.048,0.68 21.659,24.629 50,25c25.128,0.329 26.374,-25.799 54.167,-25c27.01,0.776 18.821,24.644 50,25c18.385,0.21 29.166,-4.167 29.166,-4.167Z" style="fill:#69bac9;"/><rect x="-50" y="275" width="633.333" height="400" style="fill:#69bac9;"/></svg>