<?xml version="1.0" encoding="UTF-8" standalone="no"?><!DOCTYPE svg PUBLIC "-//W3C//DTD SVG 1.1//EN" "http://www.w3.org/Graphics/SVG/1.1/DTD/svg11.dtd"><svg width="100%" height="100%" viewBox="0 0 534 534" version="1.1" xmlns="http://www.w3.org/2000/svg" xmlns:xlink="http://www.w3.org/1999/xlink" xml:space="preserve" xmlns:serif="http://www.serif.com/" style="fill-rule:evenodd;clip-rule:evenodd;stroke-linejoin:round;stroke-miterlimit:2;"><clipPath id="_clip1"><rect x="0" y="20.834" width="533.333" height="512.5"/></clipPath><g clip-path="url(#_clip1)"><path d="M-0,275.018l-25,-0l0,-233.333c0,-0 10.829,4.493 25.36,4.166c27.132,-0.609 19.786,-24.666 50.719,-25c30.754,-0.332 19.405,25.218 54.946,25c31.491,-0.193 23.552,-25.424 54.946,-25c29.774,0.402 23.331,23.979 54.946,25c32.494,1.05 25.957,-25.14 54.946,-25c28.047,0.136 22.365,23.747 50.72,25c33.771,1.493 28.192,-25.639 54.946,-25c28.452,0.68 21.976,24.336 50.719,25c30.036,0.694 26.754,-25.799 54.946,-25c27.399,0.777 19.092,24.645 50.72,25c18.649,0.21 29.586,-4.166 29.586,-4.166l0,233.333l-29.167,-0l0,258.315l-533.333,0l-0,-258.315Z" style="fill:#69bac9;"/></g></svg>