<?xml version="1.0" encoding="UTF-8" standalone="no"?><!DOCTYPE svg PUBLIC "-//W3C//DTD SVG 1.1//EN" "http://www.w3.org/Graphics/SVG/1.1/DTD/svg11.dtd"><svg width="100%" height="100%" viewBox="0 0 534 534" version="1.1" xmlns="http://www.w3.org/2000/svg" xmlns:xlink="http://www.w3.org/1999/xlink" xml:space="preserve" xmlns:serif="http://www.serif.com/" style="fill-rule:evenodd;clip-rule:evenodd;stroke-linecap:round;stroke-linejoin:round;stroke-miterlimit:1.5;"><path d="M125,409.313c-64.58,-1.114 -116.667,-53.888 -116.667,-118.732c0,-65.54 53.21,-118.75 118.75,-118.75c9.86,-0 19.44,1.204 28.602,3.473c20.472,-81.209 93.867,-141.564 181.446,-141.969c103.758,-0.478 188.385,83.371 188.864,187.129c0.479,103.759 -83.371,188.386 -187.129,188.865c-1.85,0.008 -3.695,-0.01 -5.533,-0.055l0,0.057l-206.25,-0c-0.696,-0 -1.39,-0.006 -2.083,-0.018Z" style="fill:url(#_Linear1);"/><path d="M298.564,436.322l12.027,3.223c0.821,0.22 1.344,0.971 1.344,1.785c0,0.166 -0.016,0.335 -0.062,0.504l-0.938,3.503c-0.259,0.967 -1.255,1.542 -2.222,1.283l-17.953,-4.811c-0.332,-0.089 -0.618,-0.265 -0.84,-0.496l-11.897,6.869c0.768,2.156 1.187,4.477 1.187,6.896c-0,2.419 -0.419,4.74 -1.187,6.896l13.496,7.793c0.116,-0.06 0.239,-0.109 0.369,-0.143l17.954,-4.811c0.967,-0.259 1.962,0.315 2.221,1.282l0.939,3.504c0.259,0.967 -0.316,1.962 -1.282,2.221l-11.368,3.046l10.606,6.124c0.867,0.5 1.165,1.61 0.664,2.477l-1.814,3.142c-0.5,0.866 -1.61,1.164 -2.477,0.663l-11.122,-6.421l3.264,12.181c0.259,0.967 -0.316,1.962 -1.282,2.221l-3.504,0.939c-0.967,0.259 -1.962,-0.316 -2.221,-1.283l-4.811,-17.953c-0.094,-0.351 -0.078,-0.706 0.027,-1.028l-13.267,-7.66c-3.034,3.62 -7.291,6.181 -12.132,7.045l-0,14.895c0.306,0.077 0.596,0.236 0.835,0.475l13.143,13.143c0.708,0.708 0.708,1.857 0,2.565l-2.565,2.565c-0.708,0.708 -1.857,0.708 -2.565,-0l-8.848,-8.849l-0,12.402c-0,1.001 -0.813,1.814 -1.814,1.814l-3.627,-0c-1.001,-0 -1.814,-0.813 -1.814,-1.814l0,-11.943l-8.39,8.39c-0.708,0.708 -1.857,0.708 -2.565,-0l-2.564,-2.565c-0.708,-0.708 -0.708,-1.857 -0,-2.565l13.142,-13.143c0.116,-0.115 0.243,-0.212 0.377,-0.289l0,-15.081c-4.783,-0.853 -8.995,-3.363 -12.022,-6.915l-12.352,7.132c0.255,0.411 0.346,0.922 0.211,1.426l-4.81,17.953c-0.259,0.967 -1.255,1.542 -2.222,1.283l-3.503,-0.939c-0.967,-0.259 -1.542,-1.254 -1.283,-2.221l3.424,-12.777l-12.949,7.476c-0.867,0.5 -1.977,0.203 -2.477,-0.664l-1.814,-3.142c-0.5,-0.866 -0.203,-1.977 0.664,-2.477l11.677,-6.742l-10.771,-2.886c-0.967,-0.259 -1.542,-1.254 -1.283,-2.221l0.939,-3.504c0.259,-0.967 1.255,-1.541 2.221,-1.282l17.779,4.764l12.89,-7.442c-0.806,-2.201 -1.246,-4.578 -1.246,-7.057c0,-2.479 0.44,-4.855 1.246,-7.056l-13.381,-7.726c-0.181,0.137 -0.391,0.242 -0.624,0.304l-17.953,4.811c-0.967,0.259 -1.962,-0.316 -2.221,-1.283l-0.939,-3.504c-0.259,-0.966 0.315,-1.962 1.282,-2.221l11.732,-3.143l-11.348,-6.552c-0.867,-0.5 -1.164,-1.61 -0.664,-2.477l1.814,-3.141c0.5,-0.867 1.61,-1.165 2.477,-0.664l11.402,6.583l-3.166,-11.817c-0.259,-0.967 0.315,-1.962 1.282,-2.222l3.504,-0.938c0.967,-0.259 1.962,0.315 2.221,1.282l4.811,17.954c0.068,0.255 0.078,0.513 0.039,0.758l13.391,7.732c3.027,-3.551 7.239,-6.061 12.022,-6.915l0,-15.07c-0.134,-0.077 -0.261,-0.174 -0.377,-0.289l-13.142,-13.143c-0.708,-0.708 -0.708,-1.857 -0,-2.565l2.564,-2.565c0.708,-0.707 1.857,-0.707 2.565,0l8.39,8.391l0,-11.955c0,-1.001 0.813,-1.814 1.814,-1.814l3.627,0c1.001,0 1.814,0.813 1.814,1.814l-0,12.413l8.848,-8.849c0.708,-0.707 1.857,-0.707 2.565,0l2.565,2.565c0.708,0.708 0.708,1.857 -0,2.565l-13.143,13.143c-0.239,0.239 -0.529,0.398 -0.835,0.475l-0,14.884c4.841,0.864 9.098,3.425 12.132,7.045l12.05,-6.957c0.001,-0.15 0.021,-0.303 0.062,-0.454l4.81,-17.954c0.259,-0.967 1.255,-1.541 2.221,-1.282l3.504,0.939c0.967,0.259 1.542,1.254 1.283,2.221l-3.066,11.441l12.052,-6.958c0.867,-0.501 1.977,-0.203 2.477,0.664l1.814,3.141c0.501,0.867 0.203,1.977 -0.664,2.477l-12.394,7.156Zm-46.351,10.751c-1.905,1.536 -3.252,3.737 -3.685,6.25c-0.098,0.57 -0.149,1.157 -0.149,1.755c-0,0.599 0.051,1.185 0.149,1.756c0.433,2.512 1.78,4.713 3.685,6.249c0.84,0.677 1.789,1.225 2.815,1.613c1.129,0.426 2.351,0.659 3.628,0.659c1.276,0 2.499,-0.233 3.627,-0.659c1.084,-0.41 2.08,-0.997 2.954,-1.727c1.876,-1.566 3.185,-3.788 3.575,-6.312c0.08,-0.515 0.121,-1.042 0.121,-1.579c-0,-0.537 -0.041,-1.064 -0.121,-1.578c-0.39,-2.525 -1.699,-4.747 -3.575,-6.313c-0.874,-0.73 -1.87,-1.317 -2.954,-1.727c-1.128,-0.426 -2.351,-0.659 -3.627,-0.659c-1.277,-0 -2.499,0.233 -3.628,0.659c-1.026,0.388 -1.975,0.936 -2.815,1.613Z" style="fill:#ebebeb;stroke:#000;stroke-width:1.21px;"/><defs><linearGradient id="_Linear1" x1="0" y1="0" x2="1" y2="0" gradientUnits="userSpaceOnUse" gradientTransform="matrix(183.333,191.667,-191.667,183.333,320.833,204.167)"><stop offset="0" style="stop-color:#606060;stop-opacity:1"/><stop offset="1" style="stop-color:#333;stop-opacity:1"/></linearGradient></defs></svg>