<?xml version="1.0" encoding="UTF-8" standalone="no"?>
<!DOCTYPE svg PUBLIC "-//W3C//DTD SVG 1.1//EN" "http://www.w3.org/Graphics/SVG/1.1/DTD/svg11.dtd">
<svg width="100%" height="100%" viewBox="0 0 128 128" version="1.1" xmlns="http://www.w3.org/2000/svg" xmlns:xlink="http://www.w3.org/1999/xlink" xml:space="preserve" xmlns:serif="http://www.serif.com/" style="fill-rule:evenodd;clip-rule:evenodd;stroke-linejoin:round;stroke-miterlimit:2;">
    <g transform="matrix(0.348837,0,0,2,33.3256,-66)">
        <path d="M108,51.25L108,51.75C108,51.888 107.358,52 106.567,52L23.433,52C22.642,52 22,51.888 22,51.75L22,51.25C22,51.112 22.642,51 23.433,51L106.567,51C107.358,51 108,51.112 108,51.25Z" style="fill:rgb(0,83,122);"/>
    </g>
    <g transform="matrix(0.988372,0,0,2,3.25581,-30)">
        <path d="M108,51.25L108,51.75C108,51.888 107.773,52 107.494,52L22.506,52C22.227,52 22,51.888 22,51.75L22,51.25C22,51.112 22.227,51 22.506,51L107.494,51C107.773,51 108,51.112 108,51.25Z" style="fill:rgb(0,83,122);"/>
    </g>
    <g transform="matrix(0.604651,0,0,2,11.6977,-18)">
        <path d="M108,51.25L108,51.75C108,51.888 107.629,52 107.173,52L22.827,52C22.371,52 22,51.888 22,51.75L22,51.25C22,51.112 22.371,51 22.827,51L107.173,51C107.629,51 108,51.112 108,51.25Z" style="fill:rgb(0,83,122);"/>
    </g>
    <g transform="matrix(0.755814,0,0,2,17.3721,-53)">
        <path d="M108,51.25L108,51.75C108,51.888 107.704,52 107.338,52L22.662,52C22.296,52 22,51.888 22,51.75L22,51.25C22,51.112 22.296,51 22.662,51L107.338,51C107.704,51 108,51.112 108,51.25Z" style="fill:rgb(0,83,122);"/>
    </g>
    <g transform="matrix(0.906977,0,0,2,-4.95349,-42)">
        <path d="M108,51.25L108,51.75C108,51.888 107.753,52 107.449,52L22.551,52C22.247,52 22,51.888 22,51.75L22,51.25C22,51.112 22.247,51 22.551,51L107.449,51C107.753,51 108,51.112 108,51.25Z" style="fill:rgb(0,83,122);"/>
    </g>
    <g transform="matrix(0.383721,0,0,2,39.5581,-6)">
        <path d="M108,51.25L108,51.75C108,51.888 107.416,52 106.697,52L23.303,52C22.584,52 22,51.888 22,51.75L22,51.25C22,51.112 22.584,51 23.303,51L106.697,51C107.416,51 108,51.112 108,51.25Z" style="fill:rgb(0,83,122);"/>
    </g>
</svg>
