<?xml version="1.0" encoding="UTF-8" standalone="no"?><!DOCTYPE svg PUBLIC "-//W3C//DTD SVG 1.1//EN" "http://www.w3.org/Graphics/SVG/1.1/DTD/svg11.dtd"><svg width="100%" height="100%" viewBox="0 0 534 534" version="1.1" xmlns="http://www.w3.org/2000/svg" xmlns:xlink="http://www.w3.org/1999/xlink" xml:space="preserve" xmlns:serif="http://www.serif.com/" style="fill-rule:evenodd;clip-rule:evenodd;stroke-linejoin:round;stroke-miterlimit:2;"><circle cx="380.794" cy="53.796" r="8.333" style="fill:#69bac9;"/><path d="M63.645,412.549c-28.941,-40.817 -46.978,-92.123 -46.978,-145.882c-0,-137.979 112.021,-250 250,-250c137.978,-0 250,112.021 250,250c-0,55.409 -16.71,104.873 -47.255,146.32c-0.138,0.195 -0.279,0.387 -0.425,0.576c-1.529,1.892 -3.867,3.104 -6.487,3.104c-4.599,-0 -8.333,-3.734 -8.333,-8.334c-0,-1.84 0.597,-3.542 1.609,-4.921c26.969,-38.059 44.224,-86.594 44.224,-136.745c0,-128.781 -104.553,-233.334 -233.333,-233.334c-128.781,0 -233.334,104.553 -233.334,233.334c0,48.532 18.465,98.917 43.942,136.381c0.274,0.404 0.55,0.807 0.826,1.207c0.679,1.206 1.066,2.597 1.066,4.078c-0,4.6 -3.734,8.334 -8.334,8.334c-2.534,-0 -4.806,-1.134 -6.335,-2.922c-0.285,-0.397 -0.57,-0.796 -0.853,-1.196Z" style="fill:#808080;"/><path d="M376.974,61.202c-32.673,-17.422 -70.725,-27.869 -110.307,-27.869c-128.781,0 -233.334,104.553 -233.334,233.334c0,48.532 18.465,98.917 43.942,136.381l0.826,1.207c0.679,1.206 1.066,2.597 1.066,4.078c-0,4.6 -3.734,8.334 -8.334,8.334c-2.534,-0 -4.806,-1.134 -6.335,-2.922l-0.853,-1.196c-28.941,-40.817 -46.978,-92.123 -46.978,-145.882c-0,-137.979 112.021,-250 250,-250c45.605,-0 81.803,8.749 118.629,30.117c-5.362,3.247 -3.254,10.762 -8.322,14.418Z" style="fill:#69bac9;"/><path d="M376.796,61.108c-32.633,-17.366 -70.618,-27.775 -110.129,-27.775c-128.781,0 -233.334,104.553 -233.334,233.334c0,48.532 18.465,98.917 43.942,136.381l0.826,1.207c0.679,1.206 1.066,2.597 1.066,4.078c-0,4.6 -3.734,8.334 -8.334,8.334c-2.534,-0 -4.806,-1.134 -6.335,-2.922l-0.853,-1.196c-28.941,-40.817 -46.978,-92.123 -46.978,-145.882c-0,-137.979 112.021,-250 250,-250c45.32,-0 81.351,8.64 117.94,29.718c0.233,0.127 0.463,0.26 0.689,0.399c2.304,1.483 3.831,4.07 3.831,7.012c0,4.599 -3.734,8.333 -8.333,8.333c-1.377,-0 -2.676,-0.335 -3.82,-0.927c-0.06,-0.031 -0.119,-0.062 -0.178,-0.094Z" style="fill:#69bac9;"/></svg>