<?xml version="1.0" encoding="UTF-8" standalone="no"?><!DOCTYPE svg PUBLIC "-//W3C//DTD SVG 1.1//EN" "http://www.w3.org/Graphics/SVG/1.1/DTD/svg11.dtd"><svg width="100%" height="100%" viewBox="0 0 534 534" version="1.1" xmlns="http://www.w3.org/2000/svg" xmlns:xlink="http://www.w3.org/1999/xlink" xml:space="preserve" xmlns:serif="http://www.serif.com/" style="fill-rule:evenodd;clip-rule:evenodd;stroke-linejoin:round;stroke-miterlimit:2;"><path d="M63.645,412.549c-28.941,-40.817 -46.978,-92.123 -46.978,-145.882c-0,-137.979 112.021,-250 250,-250c137.978,-0 250,112.021 250,250c-0,55.409 -16.71,104.873 -47.255,146.32c-0.138,0.195 -0.279,0.387 -0.425,0.576c-1.529,1.892 -3.867,3.104 -6.487,3.104c-4.599,-0 -8.333,-3.734 -8.333,-8.334c-0,-1.84 0.597,-3.542 1.609,-4.921c26.969,-38.059 44.224,-86.594 44.224,-136.745c0,-128.781 -104.553,-233.334 -233.333,-233.334c-128.781,0 -233.334,104.553 -233.334,233.334c0,48.532 18.465,98.917 43.942,136.381c0.274,0.404 0.55,0.807 0.826,1.207c0.679,1.206 1.066,2.597 1.066,4.078c-0,4.6 -3.734,8.334 -8.334,8.334c-2.534,-0 -4.806,-1.134 -6.335,-2.922c-0.285,-0.397 -0.57,-0.796 -0.853,-1.196Z" style="fill:#808080;"/><path d="M125.941,80.837c-54.068,42.753 -92.608,111.623 -92.608,185.83c0,48.532 18.465,98.917 43.942,136.381l0.826,1.207c0.679,1.206 1.066,2.597 1.066,4.078c-0,4.6 -3.734,8.334 -8.334,8.334c-2.534,-0 -4.806,-1.134 -6.335,-2.922l-0.853,-1.196c-28.941,-40.817 -46.978,-92.123 -46.978,-145.882c-0,-82.059 37.919,-153.403 99.053,-198.992c0.095,-0.073 0.192,-0.145 0.29,-0.216c1.362,-0.969 3.026,-1.539 4.823,-1.539c4.6,0 8.334,3.734 8.334,8.333c-0,2.627 -1.218,4.972 -3.12,6.499c-0.035,0.029 -0.071,0.057 -0.106,0.085Z" style="fill:#69bac9;"/></svg>