<?xml version="1.0" encoding="UTF-8" standalone="no"?><!DOCTYPE svg PUBLIC "-//W3C//DTD SVG 1.1//EN" "http://www.w3.org/Graphics/SVG/1.1/DTD/svg11.dtd"><svg width="100%" height="100%" viewBox="0 0 534 534" version="1.1" xmlns="http://www.w3.org/2000/svg" xmlns:xlink="http://www.w3.org/1999/xlink" xml:space="preserve" xmlns:serif="http://www.serif.com/" style="fill-rule:evenodd;clip-rule:evenodd;stroke-linejoin:round;stroke-miterlimit:2;"><path d="M125,388.479c-64.58,-1.113 -116.667,-53.888 -116.667,-118.732c0,-65.54 53.21,-118.75 118.75,-118.75c9.86,0 19.44,1.204 28.602,3.474c20.472,-81.209 93.867,-141.565 181.446,-141.969c103.758,-0.479 188.385,83.371 188.864,187.129c0.479,103.758 -83.371,188.385 -187.129,188.864c-1.85,0.009 -3.695,-0.01 -5.533,-0.054l0,0.056l-206.25,0c-0.696,0 -1.39,-0.006 -2.083,-0.018Z" style="fill:url(#_Linear1);"/><path d="M375,375c0,0 54.167,58.333 54.167,83.333c-0,29.896 -24.272,54.167 -54.167,54.167c-29.895,0 -54.167,-24.271 -54.167,-54.167c0,-25 54.167,-83.333 54.167,-83.333Z" style="fill:#40c4ff;"/><path d="M316.667,250c-0,0 54.166,58.333 54.166,83.333c0,29.896 -24.271,54.167 -54.166,54.167c-29.896,0 -54.167,-24.271 -54.167,-54.167c0,-25 54.167,-83.333 54.167,-83.333Z" style="fill:#40c4ff;"/><path d="M258.333,375c0,0 54.167,58.333 54.167,83.333c0,29.896 -24.271,54.167 -54.167,54.167c-29.895,0 -54.166,-24.271 -54.166,-54.167c-0,-25 54.166,-83.333 54.166,-83.333Z" style="fill:#40c4ff;"/><defs><linearGradient id="_Linear1" x1="0" y1="0" x2="1" y2="0" gradientUnits="userSpaceOnUse" gradientTransform="matrix(183.333,191.667,-191.667,183.333,320.833,183.333)"><stop offset="0" style="stop-color:#606060;stop-opacity:1"/><stop offset="1" style="stop-color:#333;stop-opacity:1"/></linearGradient></defs></svg>