<?xml version="1.0" encoding="UTF-8" standalone="no"?><!DOCTYPE svg PUBLIC "-//W3C//DTD SVG 1.1//EN" "http://www.w3.org/Graphics/SVG/1.1/DTD/svg11.dtd"><svg width="100%" height="100%" viewBox="0 0 534 534" version="1.1" xmlns="http://www.w3.org/2000/svg" xmlns:xlink="http://www.w3.org/1999/xlink" xml:space="preserve" xmlns:serif="http://www.serif.com/" style="fill-rule:evenodd;clip-rule:evenodd;stroke-linejoin:round;stroke-miterlimit:2;"><clipPath id="_clip1"><rect x="-0.872" y="150" width="533.333" height="383.333"/></clipPath><g clip-path="url(#_clip1)"><path d="M586.628,383.333l-37.5,170.834l-566.667,-0l-41.666,-179.167c-0,0 21.031,-8.689 58.333,-12.5c28.934,-2.956 46.834,-21.84 75,-62.5c27.327,-39.449 95.884,-150 191.667,-150c95.782,0 162.022,109.243 187.5,148.256c25.038,38.341 42.774,59.048 75,64.244c37.367,6.026 58.333,20.833 58.333,20.833Z" style="fill:#6dffdf;"/></g><clipPath id="_clip2"><rect x="-0" y="333.333" width="533.333" height="200"/></clipPath><g clip-path="url(#_clip2)"><path d="M480.545,333.333c14.37,16.329 29.008,25.87 49.488,29.167c37.429,6.026 58.429,20.833 58.429,20.833l-37.561,170.834l-567.595,-0l-41.735,-179.167c0,-0 21.066,-8.689 58.429,-12.5c3.088,-0.315 4.874,-0.78 7.424,-1.388c2.842,-0.676 6.414,-1.541 9.243,-2.779c10.602,-4.64 20.683,-13.017 31.25,-25l432.628,0Z" style="fill:#48a38f;"/></g><rect x="0" y="325" width="533.333" height="8.333" style="fill:#919191;"/></svg>