<?xml version="1.0" encoding="UTF-8" standalone="no"?><!DOCTYPE svg PUBLIC "-//W3C//DTD SVG 1.1//EN" "http://www.w3.org/Graphics/SVG/1.1/DTD/svg11.dtd"><svg width="100%" height="100%" viewBox="0 0 534 534" version="1.1" xmlns="http://www.w3.org/2000/svg" xmlns:xlink="http://www.w3.org/1999/xlink" xml:space="preserve" xmlns:serif="http://www.serif.com/" style="fill-rule:evenodd;clip-rule:evenodd;stroke-linecap:round;stroke-linejoin:round;stroke-miterlimit:1.5;"><clipPath id="_clip1"><rect x="-0.872" y="150" width="533.333" height="383.333"/></clipPath><g clip-path="url(#_clip1)"><path d="M586.628,383.333l-37.5,170.834l-566.667,-0l-41.666,-179.167c-0,0 21.031,-8.689 58.333,-12.5c28.934,-2.956 46.834,-21.84 75,-62.5c27.327,-39.449 95.884,-150 191.667,-150c95.782,0 162.022,109.243 187.5,148.256c25.038,38.341 42.774,59.048 75,64.244c37.367,6.026 58.333,20.833 58.333,20.833Z" style="fill:#6dffdf;"/></g><clipPath id="_clip2"><rect x="-0" y="333.333" width="533.333" height="200"/></clipPath><g clip-path="url(#_clip2)"><path d="M480.545,333.333c14.37,16.329 29.008,25.87 49.488,29.167c37.429,6.026 58.429,20.833 58.429,20.833l-37.561,170.834l-567.595,-0l-41.735,-179.167c0,-0 21.066,-8.689 58.429,-12.5c3.088,-0.315 4.874,-0.78 7.424,-1.388c2.842,-0.676 6.414,-1.541 9.243,-2.779c10.602,-4.64 20.683,-13.017 31.25,-25l432.628,0Z" style="fill:#48a38f;"/></g><path d="M462.921,325c1.131,-1.626 1.874,-3.492 2.168,-5.454c0.359,-2.249 1.368,-4.48 1.368,-4.48c-0,-0 2.239,-0.992 4.491,-1.331c2.095,-0.298 4.085,-1.108 5.794,-2.357c1.844,-1.322 4.138,-2.173 4.138,-2.173c0,0 2.761,1.067 4.66,2.647c1.318,1.089 2.928,1.768 4.629,1.951c2.447,0.258 5.134,1.49 5.134,1.49c0,0 1.211,2.697 1.449,5.146c0.168,1.667 0.811,3.25 1.852,4.561l-35.683,-0Z" style="fill:#ffca00;stroke:#000;stroke-width:4.17px;"/><path d="M499.451,333.333c-0.238,0.363 -0.494,0.719 -0.766,1.049c-1.087,1.327 -1.76,2.945 -1.933,4.652c-0.243,2.441 -1.449,5.106 -1.449,5.106c0,-0 -2.239,0.991 -4.491,1.33c-2.095,0.299 -4.085,1.108 -5.794,2.357c-1.844,1.323 -4.138,2.173 -4.138,2.173c0,0 -2.317,-0.895 -4.165,-2.26c-1.688,-1.263 -3.66,-2.094 -5.744,-2.419c-2.259,-0.375 -4.514,-1.409 -4.514,-1.409c-0,0 -1.017,-2.263 -1.37,-4.526c-0.311,-2.085 -1.128,-4.062 -2.381,-5.759l-0.206,-0.294l36.951,0Z" style="fill:#826501;stroke:#000;stroke-width:4.17px;"/><rect x="0" y="325" width="533.333" height="8.333" style="fill:#919191;"/></svg>