<?xml version="1.0" encoding="UTF-8" standalone="no"?><!DOCTYPE svg PUBLIC "-//W3C//DTD SVG 1.1//EN" "http://www.w3.org/Graphics/SVG/1.1/DTD/svg11.dtd"><svg width="100%" height="100%" viewBox="0 0 534 534" version="1.1" xmlns="http://www.w3.org/2000/svg" xmlns:xlink="http://www.w3.org/1999/xlink" xml:space="preserve" xmlns:serif="http://www.serif.com/" style="fill-rule:evenodd;clip-rule:evenodd;stroke-linejoin:round;stroke-miterlimit:2;"><path d="M587.5,383.333l-37.5,170.834l-566.667,-0l-41.666,-179.167c-0,-0 21.032,-8.689 58.333,-12.5c28.935,-2.956 46.834,-21.84 75,-62.5c27.327,-39.449 95.884,-150 191.667,-150c95.782,0 162.022,109.243 187.5,148.256c25.038,38.341 42.774,59.048 75,64.244c37.367,6.026 58.333,20.833 58.333,20.833Z" style="fill:#6dffdf;"/><path d="M479.759,333.333c14.347,16.329 28.96,25.87 49.408,29.167c37.367,6.026 58.333,20.833 58.333,20.833l-37.5,170.834l-566.667,-0l-41.666,-179.167c-0,-0 21.032,-8.689 58.333,-12.5c19.392,-1.981 33.827,-11.117 49.718,-29.167l430.041,0Z" style="fill:#48a38f;"/><rect x="0" y="325" width="533.333" height="8.333" style="fill:#919191;"/></svg>