<?xml version="1.0" encoding="UTF-8" standalone="no"?><!DOCTYPE svg PUBLIC "-//W3C//DTD SVG 1.1//EN" "http://www.w3.org/Graphics/SVG/1.1/DTD/svg11.dtd"><svg width="100%" height="100%" viewBox="0 0 534 534" version="1.1" xmlns="http://www.w3.org/2000/svg" xmlns:xlink="http://www.w3.org/1999/xlink" xml:space="preserve" xmlns:serif="http://www.serif.com/" style="fill-rule:evenodd;clip-rule:evenodd;stroke-linejoin:round;stroke-miterlimit:2;"><path d="M100,439.583l0,37.5c0,10.349 -8.402,18.75 -18.75,18.75l-37.5,0c-10.348,0 -18.75,-8.401 -18.75,-18.75l0,-37.5c0,-10.348 8.402,-18.75 18.75,-18.75l37.5,0c10.348,0 18.75,8.402 18.75,18.75Z" style="fill:#008600;"/><path d="M202.083,439.583l0,37.5c0,10.349 -8.401,18.75 -18.75,18.75l-37.5,0c-10.348,0 -18.75,-8.401 -18.75,-18.75l0,-37.5c0,-10.348 8.402,-18.75 18.75,-18.75l37.5,0c10.349,0 18.75,8.402 18.75,18.75Z" style="fill:#807700;"/><path d="M304.167,439.583l-0,37.5c-0,10.349 -8.402,18.75 -18.75,18.75l-37.5,0c-10.349,0 -18.75,-8.401 -18.75,-18.75l-0,-37.5c-0,-10.348 8.401,-18.75 18.75,-18.75l37.5,0c10.348,0 18.75,8.402 18.75,18.75Z" style="fill:#823000;"/><path d="M414.583,435.417l0,45.833c0,12.648 -10.268,22.917 -22.916,22.917l-45.834,-0c-12.648,-0 -22.916,-10.269 -22.916,-22.917l-0,-45.833c-0,-12.648 10.268,-22.917 22.916,-22.917l45.834,0c12.648,0 22.916,10.269 22.916,22.917Z" style="fill:#ff000f;"/><path d="M508.333,439.583l0,37.5c0,10.349 -8.401,18.75 -18.75,18.75l-37.5,0c-10.348,0 -18.75,-8.401 -18.75,-18.75l0,-37.5c0,-10.348 8.402,-18.75 18.75,-18.75l37.5,0c10.349,0 18.75,8.402 18.75,18.75Z" style="fill:#4d0084;"/></svg>